<?xml version='1.0' encoding='utf-8'?>
<svg xmlns="http://www.w3.org/2000/svg" id="Layer_1" data-name="Layer 1" viewBox="0 0 38 38">
  <style>
    .mark { fill: #1a1a1a; }
    @media (prefers-color-scheme: dark) {
      .mark { fill: #e8e6e3; }
    }
  </style><g>
    <path d="M33.58,24.44c.12-.05.15-.15.14-.27-.12.05-.15.15-.14.27Z" class="mark" />
    <path d="M33.35,24.9c.06,0,.15-.18.14-.18-.07-.05-.18.09-.14.18Z" class="mark" />
    <path d="M26.42,27.09s.08-.05.12-.09c.15-.13.11-.17.13-.19-.07.05-.14.13-.19.16-.04.03-.1.07-.16.1-.06.04-.17.08-.25.13l.05.08c.1-.06.2-.13.3-.2Z" class="mark" />
    <path d="M32.16,24.09s.04-.09.05-.14c.06-.19,0-.2,0-.23-.03.08-.05.18-.07.24-.02.05-.05.11-.08.17-.03.07-.1.16-.14.24l.09.04c.06-.11.1-.21.14-.32Z" class="mark" />
    <path d="M24.05,28.39s-.08.04-.13.06c-.18.06-.2.02-.23.02.08-.03.18-.06.23-.08.05-.02.11-.06.17-.09.07-.03.15-.1.24-.15l.04.08c-.1.06-.21.11-.32.16Z" class="mark" />
    <path d="M27.07,26.16s.09-.05.07-.11l-.1.05s0,.04-.02.05c-.05.05-.11.11-.17.16,0-.01.12-.02.21-.15Z" class="mark" />
    <path d="M34.22,21.99s-.02-.09-.02-.14c.1-.09.11-.23.11-.35,0-.07,0-.14,0-.19l-.14.02s-.02.04-.02.06c.06.02.07.05.1.1-.05-.04-.08,0-.1.1,0,.09,0,.17-.02.25-.01.13-.06.27-.07.43.11-.02.12-.18.15-.27Z" class="mark" />
    <path d="M28.2,29.11c-.08.05-.16.08-.25.15-.08.07-.11.2-.14.22.02,0,.05.07.1.05.01,0,.02-.07.03-.07.18-.06.11-.04.23-.12.01,0,.04-.03.06-.05,0,0,.03.04.06.03.17-.09.07-.15.07-.19,0-.04.07-.11.07-.17-.09.05-.16.1-.25.15Z" class="mark" />
    <path d="M27.04,31.03c.08-.03.15-.08.23-.1-.16-.17-.27.04-.36.08-.14.31.18.21.34.06-.02-.07-.08-.08-.2-.03Z" class="mark" />
    <path d="M29.78,20.65l-.05.18c.12-.03.14-.1.05-.18Z" class="mark" />
    <path d="M23.29,28.66l-.17.06c.09.08.16.06.17-.06Z" class="mark" />
    <path d="M28.72,23.79h.1s0-.07,0-.07c-.05-.01-.09.02-.1.07Z" class="mark" />
    <path d="M32.23,21.08h.1s0-.07,0-.07c-.05-.01-.09.02-.1.07Z" class="mark" />
    <path d="M31.64,16.51l-.03-.1.07-.02s0,.09-.04.12Z" class="mark" />
    <path d="M30.18,27.31c.08-.02.07-.11.09-.14-.09-.01-.1.06-.14.09-.08.07-.11.1-.18.19l.23-.09s0-.03,0-.05Z" class="mark" />
    <path d="M22.74,28.9l-.19.07s0,.05.19-.07Z" class="mark" />
    <path d="M24.15,30.01c-.09-.03-.16.03-.21.09.09-.02.21.05.21-.09Z" class="mark" />
    <path d="M28.73,30.47c-.1.05-.2.09-.27.18.05-.02.22,0,.3-.08.04,0,.05-.02,0-.05.09,0,.08-.07.12-.12-.12,0-.1.04-.15.07Z" class="mark" />
    <path d="M31.3,28.17s-.03.02-.03.03c-.01,0-.02.01-.03.05-.04-.06-.07-.05-.07.01-.08.03-.1.06-.06.08,0,0,.07.05.08.06.07,0,.09-.05.13-.09.02-.02.04-.06.06-.08.03-.03.08-.04.13-.09l-.15-.05c-.06,0-.06.04-.06.08Z" class="mark" />
    <path d="M29.26,22.42c-.03.06-.03.07-.06.13.05-.02.06-.07.06-.13Z" class="mark" />
    <g>
      <path d="M22.94,4.18c.04.1.1.12.18.05.06.06.24.15.28.09.09.02.25.05.32,0-.17-.12-.61-.18-.83-.23-.03.03-.02.06.05.09Z" class="mark" />
      <path d="M3.82,19.03c-.15.05-.05.12-.05.16,0,.24,0,.49,0,.73,0,0,.06.07.09.07.03-.32-.06-.64-.05-.96Z" class="mark" />
      <path d="M3.92,16.92c-.07.08-.08.17-.19.21.08.12.06.28.09.39.1-.16.11-.41.09-.6Z" class="mark" />
      <path d="M32.66,11.47c.01.21.15.52.32.64l-.32-.64Z" class="mark" />
      <path d="M7.63,29.79s-.07.01-.03.09c.04.07.23.22.3.28l-.09-.27c-.05-.02-.11-.1-.18-.09Z" class="mark" />
      <path d="M24.31,4.59c.2.08.39.18.6.23-.08-.16-.06-.11-.18-.18-.09-.05-.14-.12-.28-.09-.03-.01-.05-.03-.09-.05-.17-.06-.46-.15-.64-.14.2.09.39.15.6.23Z" class="mark" />
      <path d="M4.19,15.13s-.08.15-.05.18c.09.1.08-.07.09-.09.06-.16.14-.28.18-.41.02-.07.05-.15.05-.23-.11,0-.07.16-.09.18-.13.17-.12.02-.18.37Z" class="mark" />
      <path d="M27.34,6.13s.25.19.28.16c.07-.07-.32-.31-.37-.27-.08.07.06.1.09.12Z" class="mark" />
      <path d="M3.87,15.36c.06-.21.09-.43.14-.64.01-.06.06-.15.09-.21-.13-.1-.11.13-.14.21-.08.21-.09.29-.14.5-.03.13-.09.27-.09.41.14.03.12-.19.14-.27Z" class="mark" />
      <path d="M4.19,22.28c0,.13,0,.3.14.37,0-.13,0-.3-.14-.37Z" class="mark" />
      <path d="M16.43,3.36c.12-.01.29-.06.41-.09.08-.02.16.06.14-.09-.11.02-.31-.07-.27.09-.15-.01-.1-.03-.28,0-.12.03-.12.08,0,.09Z" class="mark" />
      <path d="M5.84,10.41c.04-.08.02-.11-.05-.05-.03.04-.2.31-.18.32.17,0,.18-.18.23-.27Z" class="mark" />
      <path d="M10.47,5.78c.14-.07.2-.13.32-.18.05-.02.17.02.18-.09-.1-.03-.15.02-.23.05-.11.04-.24.15-.32.18-.01,0-.18-.1-.23.09.2.11.2-.01.27-.05Z" class="mark" />
      <path d="M29.77,8.3c-.03-.16-.2-.27-.32-.37.03.13.21.31.32.37Z" class="mark" />
      <path d="M4.51,23.84c-.03-.08-.06-.15-.09-.23-.03-.08,0-.3-.14-.21.04.06.07.14.09.21.03.11.06.21.09.32.03.11.06.17.09.27.12.34.21.73.46,1.01-.05-.38-.27-.74-.41-1.1-.03-.08-.06-.18-.09-.27Z" class="mark" />
      <path d="M23.03,3.54l-.27-.05c-.1.08.32.25.27.05Z" class="mark" />
      <path d="M12.72,4.46c.07-.02.16-.04.14-.11l-.05-.02s-.23.12-.28.14c.04.09.13.02.18,0Z" class="mark" />
      <path d="M5.24,25.62c-.07-.23-.11-.14-.14-.18l-.05.05h-.05c.06.15-.05.15.14.23.03,0,.05,0,.05-.01.04.03.07.01.04-.08Z" class="mark" />
      <path d="M30.64,9.22l-.32-.32c.02.13.19.3.32.32Z" class="mark" />
      <path d="M10.1,6.06c-.08-.03-.34.17-.27.23.05.05.26-.17.27-.23Z" class="mark" />
      <path d="M7.33,29.43l-.02.09c.09.11.1.12.23.18,0-.13-.13-.19-.21-.27Z" class="mark" />
      <path d="M11.39,5.05c-.05-.03-.28.1-.27.11.04.11.31,0,.27-.11Z" class="mark" />
      <path d="M27.16,5.97c.09-.07-.2-.17-.23-.18-.07-.03-.1-.11-.18-.09-.03.13.06.08.14.14.05.04.2.2.27.14Z" class="mark" />
      <path d="M7.22,29.33s0-.09,0-.14c-.08-.05-.13-.13-.23-.14.01.06.16.24.23.27Z" class="mark" />
      <path d="M3.6,16.28c-.09.11,0,.28,0,.32,0,.03-.03.11-.05.18-.02.11,0,.16.05.14.03-.12.04-.2.05-.32,0-.1.07-.29-.05-.32Z" class="mark" />
      <path d="M26.15,5.33l-.32-.09c.01.08.3.21.32.09Z" class="mark" />
      <path d="M6.57,9.63s-.08.16-.09.18c.11.14.3-.23.09-.18Z" class="mark" />
      <path d="M29.13,7.71c-.01-.13-.13-.21-.23-.27,0,.14.14.2.23.27Z" class="mark" />
      <path d="M29.59,7.94c.06.07.13.13.18.18.05.05.09.13.14.18.05.05.14.09.18.14.06.07.06.13.18.23.02.02.03.08.07.09h.07s0-.07,0-.07c-.01-.04-.08-.05-.09-.07-.07-.09-.12-.12-.18-.18-.12-.13-.24-.24-.37-.37-.02-.02-.04-.1-.14-.18-.07-.07-.17-.17-.28-.18.08.12.16.15.23.23Z" class="mark" />
      <path d="M11.75,4.91c.07-.03.12-.06.18-.09.07-.04.18-.06.23-.09.08-.05.18-.11.23-.18-.27.02-.31.12-.5.23-.06.03-.12.05-.18.09-.05.03-.17.03-.18.14.11.04.17-.06.23-.09Z" class="mark" />
      <path d="M13.5,4.04c-.08,0-.17.03-.23.09.04,0,.26.1.23-.09Z" class="mark" />
      <path d="M3.87,22.42s.05.25.14.18c.04-.09-.08-.24-.14-.18Z" class="mark" />
      <path d="M25.74,5.19c.1-.09-.14-.11-.18-.14-.08-.04-.11-.02-.05.05.04.02.2.12.23.09Z" class="mark" />
      <path d="M9.51,6.56s-.14,0-.18,0c-.02.23.27.07.18,0Z" class="mark" />
      <path d="M28.85,7.25s.06.08.14.14c.01-.09-.06-.1-.09-.14-.07-.09-.12-.17-.23-.23,0,.12.11.16.18.23Z" class="mark" />
      <path d="M30.96,9.45s.05.12.09.18c.13.19.28.36.41.55.03.04.06.09.09.14.05.08.09.23.18.27.04-.16-.08-.22-.14-.32-.03-.05-.06-.09-.09-.14-.13-.19-.27-.37-.41-.55-.03-.04-.06-.09-.09-.14-.05-.06-.06-.19-.16-.18-.1.08.09.14.11.18Z" class="mark" />
      <path d="M12.35,4.78c.05-.01.14-.02.18-.05.02,0,.03-.04.05-.05.06-.03.09-.05.14-.09-.05-.05-.12,0-.14,0-.01.02-.03.03-.05.05-.07.04-.15.08-.23.09l.05.05Z" class="mark" />
      <path d="M28.3,6.79c.03-.11-.11-.12-.18-.18.09.11,0,.08.18.18Z" class="mark" />
      <path d="M3.59,15.18c.1-.03.1-.14.09-.23-.1.03-.1.14-.09.23Z" class="mark" />
      <path d="M5.7,11.28c-.02.12-.07.12-.05.23.03-.03.07-.06.09-.09.04,0,.08-.06.05-.09-.02-.01,0-.07-.09-.05Z" class="mark" />
      <path d="M4.24,13.99c-.08-.08-.13.15-.14.23.03.03.17-.19.14-.23Z" class="mark" />
      <path d="M22.8,3.77c-.06.03.17.11.23.09-.03-.1-.14-.1-.23-.09Z" class="mark" />
      <path d="M13.95,3.86c-.08-.01-.25.07-.18.14.04.04.17-.07.18-.14Z" class="mark" />
      <path d="M26.84,5.88s-.15-.05-.18-.05c.04.16.28.16.18.05Z" class="mark" />
      <path d="M28.99,6.66l.18.18c0-.1-.09-.19-.18-.18Z" class="mark" />
      <path d="M7.42,8.35c.07,0,.06-.16.07-.18,0,.01-.25.18-.07.18Z" class="mark" />
      <path d="M4.47,13.3h-.09v.18c.09-.02.1-.1.09-.18Z" class="mark" />
      <path d="M3.92,20.35h-.09c-.01.08,0,.13.07.18l.02-.18Z" class="mark" />
      <path d="M3.5,20.17h.09s-.02-.18-.02-.18c-.07.05-.08.1-.07.18Z" class="mark" />
      <path d="M31.42,14.81l-.05-.18-.07-.09c-.05.06-.01.13.02.19.02.03.03.06.05.08,0,.01.01.02.01.03l.08-.02s-.03-.01-.05-.01ZM33.72,15.04c-.07-.26-.1-.51-.18-.78-.01-.03-.02-.07-.03-.09-.02-.05-.05-.09-.06-.14-.06-.17-.13-.34-.18-.5-.05-.1-.1-.22-.14-.32-.03-.09-.06-.17-.09-.27-.03-.08-.07-.15-.09-.23-.13-.3-.23-.49-.37-.78-.03-.05-.07-.09-.09-.14-.1-.18-.18-.38-.29-.55-.09-.18-.21-.34-.32-.5-.03-.07-.02-.16-.09-.14-.01.07.02.11.05.18.08.16.24.34.32.5.08.14.13.27.19.41.01.02.07.06.09.09.02.06.06.13.09.18.07.15.11.37.18.5,0,.03.01.06.01.07,0-.01-.01-.01-.01-.02l-.09.05c.11.29.21.58.32.87.03.09.06.18.09.27-.02.08-.01.13.05.14-.01.14.06.37.17.4h.01c-.09.02-.06.1,0,.15-.08-.02-.1-.07-.11-.11-.01-.02-.01-.05-.02-.07-.03-.08-.06-.18-.09-.27-.02-.05-.03-.09-.05-.14-.1-.24-.23-.49-.32-.73-.05-.1-.1-.22-.14-.32-.08-.18-.17-.34-.23-.5.1-.06.02-.29-.1-.27h-.05c-.02-.1-.03-.21-.02-.32l-.07-.05c-.06-.05-.13-.08-.18-.14-.02-.03-.11-.18-.09-.23.03-.02.05-.06.05-.09.03-.02.18.24.18.07l-.32-.16c-.06-.18-.23-.54-.41-.61,0-.07,0-.16-.09-.18-.02.09.03.14.05.18.01.03,0,.08,0,.1l-.05.05c-.07-.09-.11-.14-.18-.24,0,0,.01-.03,0-.05,0-.06-.02-.11-.07-.17-.03-.03-.07-.07-.11-.1h.09s.01.08.02.1c.02.03.07.05.11.03-.02-.05-.06-.09-.09-.14-.05-.08-.08-.11-.14-.18-.08-.1-.14-.17-.23-.27l-.14-.14s-.02-.03-.05-.05c-.02-.15-.18-.26-.27-.37-.14-.16-.21-.21-.32-.32-.05-.03-.1-.1-.14-.14-.03-.03-.07-.24-.23-.23.05.08.1.13.09.23-.09-.21-.22-.32-.37-.37-.05-.07-.03-.05-.05-.14,0-.01.07-.02,0-.11-.09-.13-.22-.16-.27-.21l-.09-.09c-.13-.11-.18-.17-.32-.27-.09-.07-.07-.1-.23-.18-.11-.16-.27-.25-.42-.37-.07-.06-.1-.1-.23-.18-.13-.09-.19-.11-.32-.18-.24-.15-.38-.26-.64-.37-.14-.06-.27-.09-.41-.14l.09-.09c-.16-.01-.23-.16-.35-.22-.17-.1-.46-.21-.65-.29.05-.16-.1-.18-.23-.23-.09-.05-.19-.07-.27-.09-.29-.11-.58-.23-.87-.33,0-.14-.33-.3-.41-.18-.06-.02-.09-.06-.11-.09h.16c-.01-.08-.13-.09-.19-.09v.07s0-.01-.01-.02c-.05.07-.1.07-.17.05l-.13-.13c-.63-.18-1.28-.32-1.93-.43.06,0,.1-.02.14-.08.1.16.4.21.55.09.08.16.32.21.46.09-.13-.08-.07-.08-.32-.14-.21-.03-.42-.06-.64-.09-.11-.01-.21-.02-.32-.05-.13-.01-.29-.08-.37-.09-.09-.03-.16-.03-.18,0h-.18c-.03-.07-.13-.05-.18-.05h-.41c-.22,0-.47-.03-.65-.05h-.27c-.09-.01-.17-.02-.26-.02.02-.01.06-.01.08-.02h.61l.05-.05h-.56c-.32,0-.64-.02-.96.05-.18,0-.29.03-.46.05-.17-.02-.46.05-.61,0-.02,0-.09-.24-.17.05-.25-.01-.33.09-.43.09-.02.01-.21-.3-.11.05l-.87.23c-.11.01-.23.07-.32.09-.13.03-.22.07-.33.09-.07.02-.16.03-.23.05-.13.05-.21.11-.27.14-.01-.03-.02-.03-.05,0-.06.02-.13.02-.18.05-.1.05-.21.09-.32.14-.03.02-.06.03-.09.05-.03.02-.06.03-.09.05-.06.03-.11.03-.17.07-.02.01,0,.07-.01.07,0,.01-.02,0-.05,0-.14.03-.21.03-.37.1-.09.03-.15.09-.23.14-.03.01-.06.02-.09.05-.08.03-.17.06-.23.14.01-.01.23-.03.27-.09l.05.05c-.09,0-.27.05-.32.14-.27.14-.53.33-.78.5-.09-.17-.14-.11-.18.05-.02-.01-.07-.01-.09,0-.19.02-.11.09-.14.18-.14.03-.13,0-.27.09-.15.07-.25.19-.38.27-.14.09-.26.17-.41.27-.09.07-.42.35-.46.37-.02.01-.03.02-.01.03-.07-.03-.15-.03-.13.06-.06.02-.07.07-.09.09-.11.08-.16.16-.18.18-.03.02-.07.03-.14.09-.03.03-.1.07-.18.14-.09.08-.22.16-.27.27.14,0,.26-.11.32-.23.03.02.08.03.09.09-.03.03-.06.09-.09.14-.31.17-.54.51-.78.78-.06.07-.17.16-.23.23-.09.03-.15.11-.18.23-.01,0-.01.01-.02.01.01-.01.01-.03.02-.06v-.09c.02-.06.11-.1.14-.14.02-.03.08-.11.02-.14-.08.07-.14.16-.21.23q-.08.09-.14.18s-.08.07-.09.09c-.01.07-.03.14.05.09.02-.03.03-.08.09-.09-.01-.02,0-.06,0-.09.02.03.05.05.06.05-.02.05-.02.09-.01.14-.09.14-.3.27-.37.37-.05-.01-.08.03-.11.14-.14.05-.33.25-.25.41-.03,0-.06-.01-.07,0-.05.05-.23.32-.33.49.01-.05.01-.08.03-.11h-.01c-.07.07-.07.03-.13.18.02,0,.05,0,.07-.01-.01.02-.02.05-.03.05-.01.03-.01.07.01.1-.03.01-.06.03-.08.07.02-.05.03-.09.03-.11s-.01-.03,0-.05c-.14,0-.24.21-.18.32.02,0,.06-.02.08-.06-.02.06-.05.1-.03.15-.05.07-.07.13-.09.18-.02,0-.03,0-.05.01h-.01s-.01.06.01.08c-.08.01-.11.07-.1.18-.17.34-.4.79-.51,1.14-.08.23-.02.17-.14.37-.18.3-.48,1.57-.58,1.97-.11.23-.18.48-.17.75-.06.01-.09.02-.09.05-.07.21-.1.59-.01.77-.11.03-.13.1-.05.23-.01.1,0,.09,0,.14l-.05.32c0,.27-.03.31-.09.55-.01.13-.02.26-.01.4-.02-.03-.05-.06-.08-.03-.03.24-.06.74,0,.97.01.03.06.03.08.06,0,.07.01.15.01.23-.01.15-.03.32.05.43.14,3.66,1.7,6.58,4.04,9.3-.05.01-.03.06-.05.09-.01.03,0,.07-.05.09-.05-.06-.1-.07-.14-.09-.18-.16-.24-.27-.37-.41-.07-.08-.16-.13-.23-.21-.11-.13-.09-.25-.32-.3-.07-.1-.1-.11-.18-.18.07-.09.03-.09,0-.14-.07-.1-.16-.21-.23-.31-.15-.19-.33-.4-.5-.57-.02-.16-.16-.27-.23-.41-.03-.06-.07-.11-.1-.18.03-.1-.01-.15-.05-.23,0-.01-.03-.02-.05-.05-.01-.03-.01-.09-.05-.14-.08-.01-.11-.06-.13-.02-.01-.05-.05-.05-.1-.02-.37-.15.03.4.09.5.09.15.19.27.27.41.47.73.81,1.17,1.34,1.79.02.09.09.18.23.27-.02.11.05.18.14.09.1.09.18.25.27.37.02-.03.06-.07.09-.09-.01.17.09.29.32.37-.05.08-.02.1.05.05-.07.07-.05.1.05.09.03.06.05.09.08.09-.03,0-.05.03-.03.09.01.05.05.09.05.14-.01,0-.22-.15-.27-.18.06.27.32.38.5.55.48.43,1.03.87,1.46,1.33.02.09.06.13.09.09.02.03.05.07.05.09.01.01-.05.07-.02.1.05.06.14.02.17.03.01.01.08.11.18.18.23.17.47.33.71.5l.02-.14s-.07-.07-.11-.1c.07.03.15.07.21.06.07.06.29.17.32.24.01.01-.03.08.02.14.01.01.19.11.21.11.07.02.08-.02.09-.02.03,0,.06-.01.09,0,.1,0,.22.05.32.05.06-.05-.51-.35-.59-.32,0-.06.09-.03.09-.07-.02-.05-.07-.06-.09-.08-.31-.26-.75-.49-1.1-.73-.02-.05-.07-.09-.1-.13.06.02.13.02.15-.06.07-.05.03-.09-.05-.09l.05-.05c.1.13.25.24.46.32.25.08.45.26.69.37.24.25.53.4.87.41l.09.1h.05c-.01.06.02.1.07.16-.05-.02-.08-.03-.11.02-.08-.05-.19-.06-.27-.09-.18-.09-.35-.22-.55-.29v.05c.14.18.29.19.46.29.1.05.23.14.32.18.02.01.06.02.09.05.07.03.11.06.13.06,0,.08.07.13.15.03-.11.14.25.22.37.27.06.09.22.11.32.14.06-.02.14-.02.23,0,.05,0,.1-.01.14,0,.08.16.3.14.41.18.08.02.21.16.33.14-.06-.16-.23-.14-.33-.18-.06-.03-.17-.13-.23-.14.05-.09-.14-.15-.23-.18-.06-.05-.14-.1-.22-.14.13.02.25.02.38.02l.21.07c.42.06.95.23,1.36.35.07.02.07.09.1.1.09.02.23-.01.33,0,.02.05.07.09.09.14.13-.01.25.01.37.05.06.01.1.02.18.05-.01-.06-.05-.07-.09-.09h-.05c-.01-.18-.38-.25-.5-.18.07-.02.11-.06.14-.09.03,0,.1.03.18.05.02,0,.06-.01.08-.02.01.02-.01.02-.08.02.21.02.11-.02.23-.05.02-.01.07,0,.09,0,.03.03.03.09.05.14.02.06.02.1.09.14.06.02.17.02.23.05,0,.08.07.08.14.05.06.01.13-.01.18,0,0,.02-.02.03-.05.05-.07.01-.14-.01-.21,0l-.02.05c.07-.02.11.03.14.05.01,0,.03-.01.05,0,.03.01.09-.01.14,0,.09.01.15.03.27.05h.14v.05c.05.09.09.08.14,0h.09c.14.03.45-.07.23-.18h-.05c-.22-.01-.14.03-.23.09-.11-.07-.24-.05-.37-.05v-.09c.06-.02.1-.05.14-.09.11.14.27.15.41.05.07,0,.13-.01.18,0-.06-.07.07-.08-.18-.14-.02-.09-.23-.08-.32-.05v-.05c.14,0,.27-.01.41,0,.02-.01-.03-.07-.05-.09-.23-.1-.29-.09-.5-.14-.01-.01-.05-.05-.09-.05-.26-.05-.55-.07-.82-.09-.01-.01-.03,0-.05,0-.03-.09-.24-.02-.27-.05-.02-.02.09-.1,0-.14h-.05c.05-.07.24-.07.32-.05.01,0,.09.03.14.05.19.05.39.14.59.18.07.01.16-.02.23,0,.16.02.32.14.5.14.07,0,.22-.09.32-.05.1-.08-.24-.18-.27-.18l-.08-.15.03-.03h.32c.11-.09-.08-.09-.09-.09,0-.01-.01-.08-.05-.09-.05,0-.13-.01-.18,0-.03-.08-.24-.06-.32-.1-.01-.03.05-.03.05-.03.16.01.3.05.46.05-.1-.11-.39-.01-.37-.19.05.07.08.08.09,0,.03.01.17.13.23,0-.05-.02-.13-.05-.18-.05-.07-.07-.05-.19-.18-.18-.03-.02.01-.06.14-.09.01,0,.01-.07,0-.09.07-.13-.02-.19-.16-.23.07-.01.11-.02.11-.09.11,0,.22.01.32,0l-.05-.09c-.1,0-.21.01-.32,0-.02,0-.06.01-.09,0-.03-.07-.15-.03-.23-.05-.13-.03-.26-.09-.37-.18-.01,0,0-.07-.02-.09-.09-.08-.29-.11-.39-.05-.1-.05-.17-.08-.27-.14.18-.1.03-.09-.05-.14-.01-.01-.03-.03-.05-.05l.05-.05s.02,0,.05-.02h.01s.02-.01.03-.02c.06-.05.13-.11.14-.14,0-.06.01-.06-.05-.09-.07-.05-.21-.02-.27-.05-.07-.01-.11-.08-.23-.09h-.09s-.02-.05-.05-.05c-.02-.03-.03-.03-.05,0-.05-.02-.09-.07-.14-.09v-.05c.07.08.18.13.27.05v-.05c.1-.05.4.15.37-.05-.15.01-.27-.06-.41-.09-.13-.03-.3-.08-.41-.09-.02-.03-.05-.05-.05,0-.03-.07-.13-.03-.18-.05-.08-.01-.17-.08-.27-.05.02.1.14.1.23.09-.01.01,0,.03,0,.05.03.01.1-.01.14,0-.01.05.01.07.03.08,0,.01-.01.01-.02.02,0-.07-.09-.09-.15-.06-.05-.07-.21-.1-.27-.09,0-.15-.29-.21-.37-.09-.01-.18-.41-.37-.5-.18-.01.01-.02.02-.02.05-.03-.05-.08-.06-.17-.05.06-.05.05-.09-.05-.14.07,0,.09-.03.05-.09.05-.03.05-.1,0-.14q.09.06.09-.05c.07-.05.1-.09.1-.14.05.05.11,0,.14,0l-.05-.18c.08.05.13,0,.17-.07.25.1.65-.07.38-.3.02-.16.03-.15.09-.27,0-.02-.01-.07,0-.09.02.13.15.13.18,0,.29.01.26-.03.46-.09l-.02-.05s-.1-.01-.11,0c.1-.09.09-.16-.05-.18.16-.1.09-.27-.09-.3-.29-.22-.54-.47-.75-.75.38-.01.13-.55-.11-.51.02-.05.05-.09.05-.13.02.01.05,0,.09-.06.29.13.07-.1-.09-.18.23,0,0-.11,0-.14.11-.03.14-.23,0-.23-.07-.1-.14-.17-.23-.23.02-.16-.22-.35-.38-.32l-.18-.14s0-.07-.05-.05c-.08-.03-.14-.1-.18-.18.03-.13-.14-.24-.23-.14-.17-.13-.3-.25-.39-.39l-.16-.02c-.07-.06-.11-.11-.18-.18-.1-.11-.11-.24-.27-.27v-.05c-.07-.02-.07-.08-.09-.09-.35-.23-.1.03,0,.18-.01.06.01.08.05.05.05.07.1.13.09.23-.01-.02-.02-.03-.03-.03,0-.09-.09-.22-.15-.19h-.05c-.01-.06-.06-.09-.09-.14-.03-.05-.07-.13-.14-.14-.05.1.08.17.09.18.01.02,0,.06,0,.09.02.03.07.06.09.09-.07.09,0,.16.09.18.01.02.01.05.05.09.01.01.03.03.05.05.02.02.07.03.09.05-.03.02-.03.03,0,.05-.01.03,0,.08-.05.09.03-.09-.07-.16-.14-.09.06-.13-.22-.26-.32-.23-.07-.07-.19-.23-.27-.32-.08-.09-.18-.25-.27-.37-.08-.1-.15-.26-.27-.27,0,.01-.01.03,0,.05.01.03.02.07.05.1-.03-.03-.06-.06-.09-.06,0-.13-.06-.27-.18-.27l.14-.05c-.07-.08-.11-.09-.18-.14h-.09c.09-.09.05-.26-.09-.23,0-.07-.01-.14-.06-.13.03-.06-.01-.13-.08-.1-.02-.08-.06-.14-.09-.18-.02-.06-.07-.11-.09-.18-.01-.1-.05-.18-.09-.23-.02-.01-.03,0-.05,0-.01-.03,0-.07,0-.09-.02-.11-.09-.17-.09-.18-.02-.07,0-.09,0-.09-.02-.08-.02-.18-.05-.29-.01-.07-.03-.16-.09-.18.01-.02.01-.05,0-.09-.03-.06-.05-.11-.06-.14-.08-.18-.08-.31-.27-.32.07.08.03.21.05.27v.14l-.09-.14-.09.05c-.01-.13.06-.15-.14-.14.05-.01.05-.02,0-.05.03-.01.05-.03.05-.06,0-.01-.1-.33-.13-.39-.05-.1-.1-.23-.19-.29.05-.07.06-.26-.05-.27.05-.02.05-.03,0-.05l-.05-.14c.01-.14.01-.35-.05-.46v-.14s-.02-.03-.03-.01c.02-.03.02-.09-.01-.13.03-.14.03-.27,0-.41-.01-.03-.01-.07-.05-.09.01-.01.05-.18.05-.23.03-.18.05-.26.05-.46v-.32s-.03.05-.05.05c-.02,0-.03,0-.05-.02v-.16c.09-.06.15.01.14-.18,0-.14-.08-.18-.08-.25-.01-.06.1-.51.13-.62.02-.09.09-.19.05-.32.05-.19.08-.32.14-.51.02-.03.03-.1.05-.14.03-.07.08-.15.09-.23.01-.01,0-.02,0-.05.01-.06.03-.11.05-.18.01-.03.09-.09.05-.18-.06-.01-.05.08-.09.14-.02-.03-.03-.1-.09-.09.08.23.02.31-.05.5-.01.05-.02.09-.05.14-.11.37-.27.66-.32,1.06-.01.09.01.11,0,.18v.14s-.03.03,0,.05c-.03.06-.08.21-.09.27v.09s.01.06,0,.09c-.08.06-.03.22-.05.32-.01.11.01.18,0,.23,0,.08-.03.16-.05.23-.01.18-.03.37-.05.55.02.03.03.03.05,0v.82h.05c0,.18.02.26.05.41.01.09-.01.19.05.27l-.23-.05c-.05-.16-.07-.3-.06-.43l-.08-.07c.05-.08.02-.1-.05-.05-.06-.57-.13-1.13-.09-1.71.05-.66.32-1.37.32-2,.06-.03.03-.07.05-.09.09-.15.06-.22.09-.37.11-.05.13-.07,0-.09.19.01.14-.05.18-.23.02-.06.03-.11.05-.18-.01.13.02.16.09.09.16-.1.1-.29.14-.41l.09-.09s.01-.07,0-.09c-.1-.09-.16.02-.14.14,0,0-.05-.06-.05-.09.02-.05.05-.07.05-.14.02.05.03.05.05,0-.01-.06.03-.1.05-.14.02-.05.13-.1.14-.14.06-.11.03-.22.07-.32.05-.13.23-.41.3-.55.07-.1.11-.23.19-.32.03-.05.03-.1.14-.09.01,0,.08.08.14.05,0,0,.01-.1.05-.14.03-.05.06-.08.09-.14.03-.08.01-.1-.05-.05-.03-.01-.06-.01-.07,0,.01-.03.02-.07-.02-.09.02-.05.03-.07.02-.08.03-.02.06-.07.07-.15.01-.01.02-.01.05-.01-.03.03-.05.09,0,.15.01.03.02.03.05,0,.01.03.02.03.05,0,.06-.01.22-.1.27-.14-.01.02,0,.07,0,.09.02,0,.07-.01.09,0,.01-.02.02-.08.05-.09.01.02.03.03.05.03-.02.02-.03.06,0,.1-.13-.02-.18.05-.09.14-.02-.01-.02,0-.03-.01.01-.02,0-.05-.06-.03-.01-.02-.03-.03-.05-.05-.02.02-.09.08-.14.14-.06.06-.09.11-.14.18-.05.06-.07.09-.09.14-.02.03-.08.06-.09.09-.07.11-.09.16-.14.27-.03.07-.1.14-.09.23-.13.16-.19.29-.29.46-.02.07-.06.09-.09.18,0,.01.01.03,0,.05-.02.13.01.14.09.05.1-.01.11-.16.14-.23.02-.05.07-.08.1-.11-.26-.09.08-.14.14-.25.03-.11.07-.11.14-.18,0-.01-.02-.06.01-.08,0-.01.16-.1.17-.1h.05c.08-.05.13-.1.14-.18-.01.13-.01.1.09.05.01-.02.03-.03.05-.05.01-.1,0-.1-.09-.09.11-.01.14-.13.14-.23.01-.02.02-.03.05-.05.06-.02.09-.06.09-.09-.01,0,0-.03,0-.05.02-.01.03-.02.05-.05.03-.06.09-.13.14-.18,0-.06-.01-.07-.05-.09-.03-.01-.07,0-.1.01.01-.01.01-.03.01-.06.15-.19.3-.45.5-.59v-.05s.02.01.03.01c.01.01.01.02.02.03-.02.01-.02.03-.01.09-.19-.02-.54.51-.18.41.01-.01.01-.06.05-.09.16-.07.24-.15.23-.23.08-.02.16-.07.23-.14.07-.11.18-.18.37-.18l.09-.09c.03-.06.1-.22.14-.27.01-.06.01-.1,0-.14.05.06.08.01.09-.05.03-.02.07-.14.14-.14v-.05s-.01-.03-.02-.05c.06-.03.08-.09.07-.14.05.05.07,0,.09-.05.03-.03.06-.07.09-.1.37-.32.15-.21-.14-.14-.01.01-.02,0-.05,0,.03-.06.11-.09.09-.18.05-.02.08-.05.1-.08.13-.07.23-.15.31-.24.15.06.23-.06.32-.18.23-.13.46-.29.69-.41.08.13.03.08.13.06.11-.02.83-.27.89-.31.05-.03.03-.1.05-.11.06-.02.08-.05.09-.06.06.05.16.07.23.01.07-.03.13-.09.14-.09s.3-.05.32-.05v-.14c.15.09.27.06.37-.09.08.01.13,0,.14-.05.05,0,.11-.01.14.05-.06-.02-.15-.02-.14.05-.15.05-.38.15-.09.14.15-.05.24-.08.41-.09.05-.01.05-.03,0-.05.07.03.14.05.21.05-.02.01-.06.02-.07.05-.16-.01-.48.03-.55.18-.06.02-.13.03-.18.05h-.05c-.06,0-.1.05-.14.05-.02.05-.02.08-.02.1,0,.01-.01.03-.02.08-.02-.03-.03-.03-.05,0-.03-.03-.08-.05-.11-.02,0-.03-.02-.06-.07-.07-.18.02-.51.16-.69.23-.72.29-.24.29.14.05.11.03.1.11.24.09l.03.05s-.05.02-.05.05c.39.03.79-.23,1.15-.33.08-.02.29-.07.35-.08h.23s.03-.03.05-.05l-.23-.05c-.08-.05-.1-.01-.05.05-.07-.03-.16-.05-.26-.05.03-.01.07-.03.08-.09.11-.02.23-.02.35,0v-.05s.05.05.06,0c.1-.03.21-.06.27.03l.05-.08c.11.01.23-.01.32-.05.14-.01.27-.03.41-.05.13,0,.25-.01.37-.05.29,0,.57.09.77.09h.73c.13,0,.34.05.53.05.07.09.22.03.32.05.11.02.29.1.41.09-.02-.08-.15-.11-.23-.14-.11-.03-.15-.05-.27-.05-.1-.02-.23-.07-.32-.09,0-.14-.4-.23-.43-.09-.07-.14-.64-.15-.69,0l-.07-.09c-.21-.05-.72-.11-.88,0-.06-.07-.19-.09-.32-.08.11-.02.24-.03.34-.06l.11-.05c.05.13.1.13.15,0,.14.01.25-.01.32-.05v.05h.46c.1.13.22.13.32,0,0,0,.07.05.15.05.19.01.43-.06.58-.05.11.01.15.14.17.14.08.01.32-.1.33-.09,0,0-.01-.02-.09-.05-.16-.03-.29-.02-.41-.05-.03,0-.08-.03-.14-.05-.1,0-.19-.01-.27-.05h-.09c-.07-.03-.13-.03-.18,0-.01-.01-.02-.01-.02-.02,0,0,0-.01-.02-.02h-.18l.03-.13c.06.01.1.03.15.03l.05-.05c.03.08.19.03.14-.05-.15-.07-.35-.06-.5-.05-.08-.08-.25-.05-.37-.05h-1.02s-.11-.01-.14.05c-.13,0-.18.03-.27.05-.83.1-1.67.26-2.47.5-.14.05-.29.09-.41.14-.13.05-.25.09-.37.14.09-.07.14-.13.14-.18.03.08.17.05.18-.05.11.01.33-.01.37-.14.01.05.03.05.05,0h.14c.98-.24,1.98-.45,2.97-.59.46.07.93.05,1.39-.07l.13.02c.07.13.25.13.32,0,.11.02.22.02.32,0-.05.02-.05.03,0,.05.16.01.31.03.46.05.19.01.17-.03.41.05.02.03.03.03.05,0,.02.01.06.03.09.05.13-.03.25-.01.37.09l.05-.05c.01.07.09.1.23.09.01.07.05.11.09.11-.13-.02-.25-.03-.37-.02-.05-.07-.14-.09-.27-.09-.14.03-.16.03,0,.14-.02.05-.07.03-.09.05-.01-.05-.06-.03-.09-.05-.08-.01-.15-.03-.23-.05-.18-.02-.17,0-.27,0,.07.03.16.07.23.09.01,0,.03.03.09.05.05.01.09-.01.14,0,.06.03.09.03.09,0,.09.07.22.08.32.05h.05c-.02.13.07.09.14.11.42.16.88.25,1.29.43.08.03.19.13.32.18.06.03.13.07.18.09.14.08.33.16.46.23.03.02.08.07.14.09.05.03.11.1.18.14.07.06.16.09.23.14.03.02.06.07.09.09.01.01.02.03.05.05.07.06.15.13.23.18.09.07.18.13.27.18.08.07.26.14.32.18.03.03.08.09.14.14.16.15.43.4.59.56.06.05.14.13.18.18.15.15.31.33.46.5.07.07.14.08.14.09.01,0,.02.06.05.09.08.1.03.13.18.27-.05-.08-.06-.21-.09-.27.13-.08.05-.25-.09-.18-.05-.08-.07-.09-.14-.14,0-.19-.32-.42-.5-.41.05-.15-.05-.23-.18-.18-.05-.25-.31-.53-.55-.56.07-.11-.08-.22-.18-.14.07-.1-.08-.25-.18-.18,0,0,.05-.03.05-.06-.03-.14-.16-.02-.18-.03.03-.13-.14-.23-.23-.14.06-.11-.13-.27-.23-.18.05-.08.02-.1-.05-.05.02-.1-.02-.13-.09-.05.05-.15-.1-.17-.23-.14.01-.03-.02-.07-.09-.09.09,0,.26.11.23-.02-.01-.03-.17-.05-.23-.07.01-.13-.03-.15-.09-.05-.02-.11-.14-.1-.18-.14l.05.09c-.1-.09-.19-.13-.27-.09-.02-.07-.13-.15-.18-.09,0-.07-.07-.11-.11-.07,0-.01-.01-.01-.02-.02-.05-.05-.09-.08-.15-.11-.01-.01-.01-.02-.02-.02-.05-.03-.1-.06-.15-.09-.01-.01-.02-.02-.02-.02t-.02-.02v-.05s-.15-.03-.19-.05c-.01,0-.01-.07-.14-.09h-.09c-.1-.19-.37-.33-.63-.38.05,0,.09-.02.13-.08.15-.01.29-.02.41-.05-.03.02-.03.03,0,.05.06.11.11.13.14.01,0,.13.24.22.29.08.05.13.16.11.27.14.05.06.15.09.18,0,0,.09.16.14.18.05-.02-.02-.03-.07-.05-.09.06.06.17.11.23.05-.05.07-.02.09.05.05v.09s-.05.03,0,.05c-.05-.03-.11-.06-.14,0-.09-.02-.17-.02-.23-.05v.05s.14.02.18.05c.15.17.34.29.59.37-.09.02-.16-.02-.23-.05-.05-.01-.08-.03-.14-.05-.05-.03-.1-.03-.14,0,.1.13.06.13.27.23.05.02.09.03.14.05.06.03.11.13.23.09.06.19.14.11.23.18.08.05.1.02.05-.05l-.05-.05c-.07-.06-.14-.13-.23-.14-.01-.01,0-.03,0-.05-.01-.02-.05-.03-.05-.05.01-.02.01-.03,0-.05.05.01.09.03.14.05-.02.08.14.21.18.14.11.22.49.43.73.41.06.05.16.14.23.18.39.3.7.7,1.1.97.01.17.19.21.27.27h0s-.01-.09-.05-.14c.01-.07-.08-.17-.14-.14-.01-.02-.07-.03-.09-.05-.38-.43-.61-.62-1.05-.97-.08-.06-.15-.11-.23-.18-.26-.19-.43-.37-.73-.55-.17-.09-.39-.17-.55-.27-.01-.02-.01-.05-.03-.06.02.01.05.02.08.01.1.01.08.06.18-.09.09.05.18.13.27.18-.02.14.08.18.18.09v.05c.01.13.11.16.18.05-.02.13.01.15.09.05.05.02.13.1.18.14.07.05.13.09.18.14.03.02.08.03.09.05.05.03.1.07.14.09.1.08.27.23.37.32.14.14.1.13.16.27.06-.15.05-.06.11-.05.05.13.21.16.27.23.25.26.54.56.79.83.16.18.39.48.55.69.03.03.06.09.09.14.05.06.09.11.14.18.06.08.13.15.18.23.03.06.08.15.14.23.05.07.06.14.14.23.06.07.09.15.18.18-.05-.17.01-.38-.23-.41-.01-.01-.03-.02-.05-.05-.06-.08-.09-.16-.14-.23-.06-.09-.14-.16-.18-.23-.05-.07-.09-.13-.14-.18-.03-.05-.06-.09-.09-.14-.21-.29-.33-.43-.55-.69-.1-.11-.18-.27-.29-.37,0-.06,0-.11-.02-.15.02-.01.05-.01.07-.03,0,.17.21.42.38.37,0,.06,0,.13.03.18.21.3.5.71.79.87.06.07.13.15.18.23.03.05.06.09.09.14.02.03.05.06.09.11,0-.02,0-.05-.05-.11-.05-.08-.07-.1-.09-.14-.07-.13-.13-.18-.18-.27-.09-.14-.16-.37-.32-.48l.05-.16c-.01-.14-.09-.1-.13-.07-.01,0-.03.01-.06.02-.08-.08-.33-.31-.37-.37-.01-.01-.01-.03,0-.05,0-.14.07-.15-.11-.29l-.07.09c-.16-.13-.23-.23-.42-.37.01-.02,0-.08,0-.09.01,0,.09.01.09,0,.02-.01-.17-.25-.14-.05-.07-.05-.14-.09-.18-.18-.01-.02.02-.11,0-.14,0,0-.03.08-.18-.09-.05-.06-.08-.11-.14-.18-.05-.05-.08-.09-.14-.14l-.09-.09c.02-.09-.09-.18-.18-.14-.14-.22-.33-.41-.57-.57l-.25-.07c-.07-.15-.88-.64-.97-.56h0s-.05,0-.08.06l-.14-.14s-.08-.1-.14-.14c-.13-.07-.27-.11-.41-.09-.03-.11-.15-.19-.27-.26.03,0,.07-.01.09-.06.14.14.33.19.5.27.02.01.06.03.09.05.05.02.1.02.14.05.07.03.15.09.23.14.11.06.26.13.37.18.1.06.22.13.32.18.01.01.02.03.05.05.08.05.17.15.23.18.03.02.15.1.18.09.02,0,.08-.03.09-.05.01.02.05.03.05.05.1.02.15,0,.23-.05-.06-.05-.17-.05-.23-.09-.06-.03-.1-.11-.14-.14-.01-.01-.02-.03-.05-.05-.03-.02-.09-.06-.14-.09-.01-.01-.02-.03-.05-.05-.02-.01-.06-.03-.09-.05-.05-.02-.09-.05-.14-.05v-.05h-.05s-.09-.07-.14-.09c-.06-.03-.13-.06-.18-.09-.02-.01-.06-.06-.08-.08.08.07.16.11.26.13.05.06.16.13.23.09.03.09.17.15.27.14.11.17.34.38.55.41.07.11.83.69.89.7.02,0,.05,0,.07-.01-.01.13.16.26.27.23.09.09.17.22.33.23,0,.19.31.47.5.46.02-.01.05-.03.03-.05.02,0,.03-.01.06-.05.05.03.13.17.14.23-.05-.01-.09-.03-.14-.05.13.15.31.39.46.55.06.08.14.14.18.19.03.03.02.19.18.18,0-.08-.03-.16-.09-.23.01,0,.03.02.05.05.06.06.06.11.09.18.02.01.06.02.09.05.02.01.03.03.05.05.01.09.08.15.14.23.03.03.06.09.09.14.02.02.06.05.09.09.01.01.03.02.05.05.14.17.1.19.18.37h-.09s.06.13.09.18.18.34.18.37l.09.05v-.27c.05.06.1.1.14.18.03.45.3.67.46,1.05.11.25.23.53.32.78.03.08.06.16.08.24.01.09.03.18.06.26,0,.02,0,.05.01.08,0,.03.01.07.03.11l.38-.1.08.26.63-.18c-.01-.1-.03-.19-.07-.27-.02-.08-.06-.15-.09-.22l-.03-.17s.01.01.03-.01v.09s.07.09.09.14c.01.03.02.1.05.14h0c.02.1.06.21.08.3l.16-.05s-.01-.01-.01-.02c.01.01.02.01.03.01h.01l.4-.11.31,1.05.16-.06c-.02-.08-.03-.15-.05-.21-.09-.02-.11.03-.05.09-.01.03-.03.07-.05.09.03-.08-.03-.14-.05-.18-.01-.02,0-.06,0-.09.02,0,.07-.03.09-.05.02.05.03.05.05,0,.01.05.03.07.05.08.01.09.02.16.05.24l.11-.03c-.03-.17-.07-.33-.11-.51ZM32.77,12.64s.05.06.08.07c-.01.05,0,.1.01.16-.02-.08-.06-.16-.09-.23ZM32.94,13.04s.03.02.05.03c-.01.01-.01.02-.01.05-.01-.02-.02-.06-.03-.08ZM33.03,13.34s-.03-.03-.05,0c.02-.05.02-.1.01-.15.01.01.03.03.05.03,0,.01.01.01.03.02,0,.06,0,.11.02.17-.02-.03-.05-.06-.07-.08ZM4.05,18.7s-.03.01-.05.01v-.02s-.02-.02-.05-.03c.03-.03.05-.1.06-.18.01.05.02.09.03.14-.05.05-.07.07,0,.09ZM8.04,17.47c-.08,0-.1.08-.05.14h-.09c.07-.15.1-.31.11-.49.01.01.01.02.02.03v.32ZM8.03,17.09v-.07s0,.02.01.03c-.01.01-.01.02-.01.03ZM17.16,34.15c.15.02.31.03.46.05.06,0,.14.03.23.05-.03.01-.03.03,0,.05-.03,0-.22.03-.27.05-.01,0-.03-.01-.05,0,.05-.17-.23-.06-.37-.14v-.05ZM17.71,32.26s.03.05.07.06c.05.02.11.01.16-.01.01.02.05.05.08.06h-.22s-.02-.03-.02-.05c-.03-.02-.06-.01-.07.03-.08-.06-.08-.09,0-.09ZM17.13,33.38s.11.01.17-.01c.08.01.15.03.23.05.11-.03.13-.08,0-.09-.09,0-.18-.05-.25-.05.09,0,.21-.01.3-.05-.03.06-.01.07.05.05.03.08.19.1.27.09v.05h-.14s-.09.05-.14.09c-.08-.01-.1-.01-.09.02-.07-.05-.19-.05-.27-.02-.01-.07-.11-.07-.14,0,.02-.05.02-.08-.01-.07,0-.01-.01-.01-.03-.02.03-.01.06-.02.06-.03ZM16.84,32.95s.05.06.08.07c-.02,0-.06,0-.08.02-.02-.03-.07-.06-.13-.08.05.01.09.01.13-.01ZM16.75,33.21s.08.02.09-.02l-.05.09s-.03-.05-.05,0c.01-.03.01-.06,0-.07-.02-.01-.05,0-.09.02-.03-.09-.15-.07-.23-.05,0-.09.09-.1.27-.05,0,.02.01.06.05.07ZM16.52,32.54c.06,0,.1-.01.09-.09.01.05.02.07.06.08,0,0-.01,0-.01.01-.03.02-.05.07-.03.1-.03,0-.05.03-.06.08-.06-.06-.06-.1-.05-.18ZM16.48,32.86s.08.05.11.07c-.03-.01-.08-.02-.11-.02-.03-.02-.08-.03-.13-.05.05.01.09.01.13,0ZM16.47,33.8s.07-.01.1-.02c.07.02.17-.07.14.09.01.01.03.02.05.02l-.05.02s-.08-.02-.14,0c0-.07-.06-.11-.1-.11-.03,0-.06.02-.08.07-.01-.05-.06-.05-.09-.05-.06-.01-.13,0-.18,0,.05-.02.1-.06.18-.09.06.03.13.06.17.07ZM16.28,32.82c-.06-.01-.11-.01-.17-.01-.01-.02-.02-.03-.05-.03-.01,0-.03.01-.05.03v-.09s.02.05.05.06.07.01.14-.01c.01.03.05.05.08.06ZM16.07,30.8l-.05.05-.03-.03s.06,0,.08-.01ZM14.92,31.03c0,.11.07.13.17.02l.1.02c.09.06.08.14.14.18.01.01.09.02.14.05.02.02.06.03.09.05.06.03.14.06.18.11,0,.01-.07.06-.09.07.05.02.09.03.14.05l-.05.09s-.06-.07-.09-.06c0-.03-.03-.05-.09-.03.02-.06,0-.08-.05-.05.02-.13-.03-.16-.09-.05,0-.03-.01-.07-.03-.1-.02-.02-.42-.02-.47.01v-.05s-.03-.06-.06-.08c0-.01.01-.03.01-.06.03-.06.02-.09-.02-.13.03,0,.06-.01.07-.06ZM14.74,30.98s.01.06.03.07c-.03,0-.07.01-.08.02-.01-.02-.01-.03-.02-.05.02,0,.05,0,.07-.05ZM14.7,30.75s0,.03.01.03c-.05,0-.1.01-.1.06.01-.05,0-.06-.06-.05l.15-.05ZM13.36,33.46s.03.03.05,0c.03,0,.07-.01.09,0,.06.05.11.09.18.11-.05,0-.09,0-.14.02-.05-.08-.13-.14-.18-.05v-.09ZM13.06,33.39s-.01.01-.02.02c-.01-.02-.02-.03-.05-.06.02.01.05.02.07.03ZM12.72,25.07l.05.07s-.03.01-.05.02c0-.02.01-.07,0-.09ZM10.18,31.87v-.02s.01.01.01.02h-.01ZM10.25,31.94s-.02-.05-.05-.06c.02.01.06.02.09.01.01.03.05.08.09.11-.05-.02-.09-.05-.14-.07ZM10.28,22.42s.02.03.06.05c-.01.01-.02.02-.02.05h-.02s0-.06-.01-.09ZM10.39,22.56s-.01.06,0,.08c-.01-.01-.03-.03-.05-.03.01-.02.01-.05,0-.07.01.01.02.01.05.02ZM10.15,21.63s-.06.05-.06.08c-.01-.03-.01-.06-.02-.09.02.02.05.03.08.01ZM10.09,21.72s.02.05.06.06c.01.02.05.14.06.18,0,.01-.01.02,0,.05.02.1.07.15.09.23.01.05.02.09.05.14-.03,0-.05.01-.06.02-.01-.1-.07-.24-.14-.3.01-.06,0-.07-.05-.05.09-.07.03-.17-.05-.23.03-.02.03-.07.03-.1ZM10.02,21.44s0,.09.01.13c-.02-.03-.03-.06-.07-.07.03-.01.06-.03.06-.06ZM13.54,8.03s.03-.01.06-.02c-.01.02-.01.05-.01.07-.02-.01-.07,0-.1,0,.02-.01.05-.02.06-.05ZM13.36,8.12v-.05s.05.02.08.02c-.03.01-.07.03-.08.07-.01,0-.03.01-.06.02.02-.02.05-.05.06-.07ZM13.13,8.26s.06.01.06,0c0-.02,0-.03-.01-.05.02.01.05.01.06,0-.01.01-.03.02-.05.05-.01.01-.01.02-.01.05-.02,0-.05,0-.08.01.02-.01.03-.03.03-.06ZM12.99,8.35s.05,0,.07-.01c-.01.01-.02.03-.02.06-.02-.01-.05-.01-.07-.01.01,0,.02-.02.02-.03ZM12.86,8.44s.02,0,.03-.01c-.01.02-.02.03-.03.06-.03.01-.07.02-.09.03.03-.02.07-.06.09-.08ZM12.66,4.9v.02h-.01s0-.01.01-.02ZM12.6,4.94s-.03.02-.05.05c0-.01,0-.02-.02-.02.02,0,.05-.01.07-.02ZM12.44,8.58s.06.02.07.02h.03s.02-.01.03-.02c.03.01.08-.01.13-.02-.03.01-.07.03-.08.07-.03-.01-.06-.02-.08-.02-.03,0-.03.02-.01.07-.07,0-.15.03-.23.09.05-.06.1-.11.14-.18ZM12.26,9.08c.08.03.1.03.18,0v.05c-.09,0-.18.02-.22.07-.02.03-.02.07-.01.11-.03.01-.07.03-.1.07.02-.05.02-.08.01-.11-.02-.01-.05-.05-.05-.05.05.02.11.01.15-.02.03-.02.05-.06.03-.11ZM12.22,9.77s-.08.03-.11.06c.03-.02.07-.06.07-.1l.05.05ZM9.19,11.74c.15.03.35-.25.32-.37.27-.25.54-.53.78-.81l.1-.25c.09-.05.17-.13.23-.23l.06.02.3-.31c.15-.07.24-.15.29-.26.11.01.13-.01.05-.09.11-.03.16-.08.14-.14.05-.05.11-.08.18-.09.01-.02.02-.06.05-.09.11.07.29-.06.23-.18.11-.01.22-.05.3-.1-.09.09-.17.19-.16.29-.06.05-.18.1-.27.17-.17.14-.34.29-.5.42v.05c-.16,0-.3.1-.37.23-.15.11-.19.22-.37.27-.01.03.02.11.05.14-.02.17-.21.23-.27.38-.07,0-.07.1-.11-.05-.13.08-.1.24-.17.37,0,.01-.03.02-.05.05l-.07-.09c-.06.03-.02.09-.07.14-.03.03-.08.07-.14.14-.01.02-.06.03-.09.09-.01.02-.02.06-.05.09-.09.13-.15.29-.23.41-.02.03-.1.14-.14.18-.05.07-.15.13-.18.23h-.05s-.05.02-.07.06c.01-.06.02-.1.02-.15.14-.02.37-.37.27-.5ZM8.87,7.43s.06,0,.05-.05c.02,0,.05,0,.06-.02-.03.03-.06.08-.06.11-.02,0-.05,0-.06.02.01-.02.02-.05.01-.07ZM8.87,12.57l-.06-.02s.01-.03.02-.06c0,.03,0,.07.03.08ZM8.83,7.5s-.03.03-.05.06t-.01-.03s.05-.01.06-.02ZM8.59,13.62c.05-.06.09-.11.13-.17-.03.08-.06.16-.08.22-.02.02-.05.05-.06.08,0-.05.01-.09.01-.13ZM8.45,13.98s.05-.05.07-.08c-.01.05-.02.09-.02.13-.02.01-.03.02-.05.03.01-.02.01-.06,0-.08ZM8.43,14.09s-.01.02-.01.05l-.02-.02s.02-.01.03-.02ZM8.12,16.35v.05c0-.06-.01-.11-.03-.16.03-.01.06-.02.08-.03-.02.03-.01.08.01.13l-.06.02ZM8.29,19.22s0-.07-.02-.1l.05-.09c0,.07-.01.14-.02.19ZM8.27,18.11s.02-.08.03-.13c0,.05,0,.09.01.13-.01-.05-.03-.05-.05,0ZM8.31,17.82s-.01-.09-.03-.13c.03-.03.05-.09.06-.14,0,.05.01.1.03.14-.02.02-.05.07-.06.13ZM8.33,17.38s0-.1-.01-.14c.01-.03.02-.07.03-.1,0,.03,0,.08.01.1-.01.03-.02.09-.03.14ZM8.55,16.28c-.06.02-.03.09,0,.14-.02.01-.03.03,0,.05h-.05c0,.07.01.15,0,.23-.08.01-.09.06-.03.09-.05,0-.05.05-.01.14-.06-.02-.07.03-.05.09-.01.01-.03.03-.05.07.01-.05.01-.08,0-.11.05-.03.05-.1,0-.18.11-.06.11-.32.05-.41.02-.01.05-.03.05-.05.07-.01.08-.08.05-.14.03-.01.05-.03.05-.07,0,.05.01.08.05.11l-.05.05ZM8.56,16.08s0-.05-.01-.08c.01-.01.02-.02.03-.05,0,.02,0,.03.01.05-.01.02-.02.06-.03.08ZM8.64,15.77s-.03.07-.05.1c.01-.03.01-.07,0-.1.02-.02.03-.05.05-.07v.07ZM8.67,15.56s-.02.05-.02.07c0-.01,0-.03-.01-.05.01-.01.03-.01.03-.02.02-.03.01-.08-.03-.11.03.01.05-.01.07-.03-.01.03-.01.07.02.08-.02.01-.05.03-.06.07ZM8.77,15.26s-.02.05-.05.07c.01-.02.01-.05,0-.07.02-.02.03-.05.05-.08-.01.03-.01.06,0,.08ZM8.8,15.12s.02-.08.02-.13c.02-.01.03-.02.03-.03-.01.03,0,.09.01.13-.03,0-.06.01-.07.03ZM9,14.72c-.08.02-.13.05-.05.09-.03-.01-.06,0-.07.02s0,.05.02.07c-.02,0-.05.02-.05.05,0-.01-.01-.03-.05-.05.05-.01.05-.02,0-.05.03,0,.05-.01.07-.02.02-.03.02-.08-.02-.11.05-.03.09-.07.11-.13,0,.03,0,.06.02.08-.03.02-.03.03,0,.05ZM9.04,14.45s.01-.03.01-.06h.05l-.06.06ZM9.19,13.71c-.08-.06-.15-.06-.18.05h.14c-.07.13-.16.29-.18.41v.05c-.07.05-.07.11-.09.18-.01.05-.03.06-.05.14h-.05s0,.07,0,.09c-.25.09-.14.14-.14.27v.05s-.07.06-.09.09c-.02.03-.03.06-.05.09-.03.11-.01.15,0,.27,0,.02.01.03,0,.05-.01.05-.13.16-.14.27v.14c-.09-.01-.11.03-.05.09-.06,0-.09.02-.1.07,0,.02.01.06.06.07-.03.02-.06.05-.07.06,0-.02-.02-.07-.07-.1.03,0,.06-.01.08-.02.02-.03.03-.09.01-.16.1.01.1-.13.05-.18.14-.3.24-.62.3-.95.13-.11.15-.21.07-.29.09-.05.15-.18.09-.27.14.02.17-.08.09-.18.19-.02.17-.25.14-.37.05-.07.11-.18.18-.23v.14l.14-.05s-.07.18-.09.23ZM9.41,13.3s-.05.01,0-.09c.02-.01.03-.02.03-.03-.01.05-.01.09.01.13-.01-.05-.02-.05-.05,0ZM9.45,13.15s-.01-.02-.03-.03c.02,0,.05-.01.07-.02-.01.01-.02.03-.03.06ZM10.48,12.7s-.02-.02-.02-.02c.01-.01.01-.02.02-.03,0,.01-.01.02,0,.06ZM10.52,11.65c-.05.06-.1.09-.14.14-.05.05-.13.11-.14.14l-.03-.02s.02-.08.03-.11c-.14-.02-.11.1-.15.14-.05.06-.19.17-.14.23.01-.01.05,0,.05,0,.06,0,.13-.05.19-.14-.03.06-.07.16-.1.23-.01-.05-.02-.05-.05,0-.05.14-.14.24-.23.37-.05.08-.13.24-.16.27-.06.07-.11.03-.16.05-.01,0-.05-.01-.08.01-.02.01-.03.09-.06.13-.06.09-.1.3-.23.27.02-.15.07-.24.14-.37.08.05.1.01.05-.05.05-.03.08-.11.14-.14,0-.03.01-.07,0-.09.14.02.19-.1.09-.18.18-.02.32-.19.27-.37h.07c.09-.18.22-.35.35-.5.03-.03.07-.07.09-.11.01.01.01.02.05.02-.03.09-.11.07-.14.09-.01.02,0,.06,0,.09.02,0,.06-.01.09,0,.07,0,.15-.09.09-.14.05.06.07.02.09-.03,0,.01.01.06,0,.08ZM10.75,12.29s-.05-.05-.07-.06c.02-.01.02-.05.02-.08.03,0,.08-.01.11-.05-.05.06-.08.13-.07.18ZM10.84,11.29s-.1-.09-.14-.09c.03-.02.03-.03,0-.05l.05-.09s.03-.02.05-.05h.05c.02.08.06.08.09,0,.06,0,.09-.02.07-.07.01,0,.01-.01.02-.02.02.01.03.01.05.02.01.05.06.07.1.07-.06.05-.13.17-.15.18h-.05s-.03-.05-.05-.05c-.01.02-.08.01-.09.14ZM11.03,10.83c.09-.08.14-.16.14-.23.06.01.11-.02.18-.09-.05.05-.09.13-.14.18-.05.05-.14.09-.18.14ZM11.12,11.88s-.09-.01-.11.02c-.02.02-.02.07.02.11-.03-.02-.07-.01-.1,0,.03-.03.06-.08.08-.11.01-.03.02-.08.02-.11.05.01.08,0,.09-.01-.02.02-.01.05.01.07,0,0-.01.01-.01.03ZM11.12,11.77s-.01-.05-.05-.07h.18c-.07.01-.13.03-.14.07ZM11.26,11.1s-.05,0-.05,0c-.01-.01.01-.07-.01-.09.09-.01.18-.09.15-.18.07-.03.14-.08.09-.14.05.02.09-.01.14-.09-.05.11.02.14-.18.23l.05.09c-.08.02-.15.1-.18.18ZM11.35,10.45c.13-.05.25-.15.37-.32-.05.07-.08.26-.09.27-.01.01-.1.05-.14.1l-.14-.06ZM11.67,11.29s-.07.02-.09.05c-.02.01-.05,0-.08,0,.06-.08.13-.13.18-.18-.02.03-.03.06-.03.08,0,.01.01.03.02.06ZM11.62,10.6h-.03c.06-.06.08-.09.08-.15.05.02.09,0,.13-.03-.01.01-.01.03.01.03-.03.05-.14.11-.18.15ZM11.76,10.13s-.02-.01-.02-.01c.02-.01.06-.05.08-.07-.02.03-.05.06-.06.08ZM11.62,9.86c-.23.02-.48.29-.5.5-.21,0-.51.26-.5.47-.07-.01-.11,0-.17.03-.09.07-.63.73-.63.8,0,.03,0,.06.01.08h-.09c-.1.14-.72,1.04-.69,1.1.01.02.02.03.05.05-.03.02-.03.05,0,.05-.05.03-.06.09-.09.14-.03.01-.08.05-.11.09.08-.16.13-.33.16-.5.13-.22.29-.47.41-.69.08-.13.19-.16.23-.37h.05s.08-.06.09-.09c.08-.14.13-.24.23-.37.05-.06.25-.31.29-.32.01-.02.07-.05.09-.05.01-.1.15-.25.23-.33.21-.19.35-.37.55-.55.06-.06.19-.13.27-.18.1.06.14.02.14-.09,0,0,.02.05.06.03.06-.01.13-.1.22-.08-.21.07-.3.16-.27.27ZM11.94,9.9s.07-.02.09-.03c-.03.02-.07.06-.09.08-.03.02-.06.05-.08.07.02-.03.06-.07.08-.11ZM12.08,10.87s-.06,0-.1.02l.07-.07v-.05s.03-.01.07-.02c-.02.03-.05.07-.03.11ZM12.9,10.22l-.09.09c-.05.06-.08.11-.09.19-.14.05-.33.15-.46.23-.03-.03-.07-.03-.1-.02.02-.02.02-.05.02-.08.01.01.02.01.03.01.17-.03.48-.17.5-.38.08.03.11-.01.14-.09.07,0,.11-.01.16-.03-.03.02-.09.07-.11.08ZM13.72,9.13c-.21.11-.5.27-.69.41-.15.11-.34.31-.46.46l-.07-.09c-.07.11-.22.14-.3.18-.03.02-.08.1-.14.14-.03.02-.08.08-.11.08s-.05-.02-.07-.03c.11-.01.27-.17.27-.27.16.01.33-.11.37-.27.08-.06.19-.13.27-.18.09.06.16.01.14-.09.23-.01.51-.21.69-.37.09-.01.74-.31.74-.35.01-.01,0-.03-.01-.06h.09c.06,0,.13-.01.15.05-.27.13-.62.27-.88.41ZM16.39,9.03s-.02-.03-.02-.05c.02,0,.05-.01.07-.05.02.02.08.02.13.02-.06.02-.13.05-.17.07ZM16.59,8.94s.08-.05.07-.09c.02,0,.17-.05.18-.05.02.06.07.08.11.09-.13,0-.25.01-.37.05ZM19.04,7.83s.03-.01.06-.03c.11.03.25.03.37,0,.07.07.18.08.27.05.07.02.14.03.21.05h-.07c-.1-.01-.22,0-.32,0-.08-.02-.16-.05-.23,0h-.27s-.02-.02-.03-.02c.02-.01.02-.02.02-.03ZM18.38,8.33c-.11.01-.23.06-.3.11l-.23.05c-.02-.08-.09-.07-.14,0-.07-.01-.13-.01-.17,0,.02,0,.01-.02-.01-.05.3-.03.57-.08.85-.11ZM17.48,8.49s.03.01.05.01c-.01.01-.03.02-.05.03-.02,0-.05-.01-.08-.01.03-.01.06-.02.08-.03ZM16.16,8.58c.08.02.02.03-.05.05.02-.01.05-.02.05-.05ZM15.56,8.76s.01.01.01.01h-.02s.01,0,.01-.01ZM18.99,3.76c-.29-.07-.71-.05-1.01.05v-.09c.4-.02.75-.03,1.15-.05.3,0,.61.01.91,0,.05.08.18.05.27.05.02.03.06.06.11.08-.49-.06-.99-.09-1.45-.03ZM20.73,3.83c.08,0,.16-.02.19-.07.01.06.05.09.1.11-.09-.01-.19-.02-.3-.05ZM22.3,6.75l.05-.09s.05.06.09.07c-.05,0-.1,0-.14.02ZM22.8,6.89c-.01-.06-.07-.07-.18-.05-.01-.03-.03-.05-.07-.07.09.01.18.02.25.02-.01.05.02.07.09.05.06.03.13.06.19.08-.1-.02-.21-.03-.29-.03ZM23.3,7.07s-.06-.07-.1-.09c.09.02.18.03.3.05.02.08.07.1.09.02,0,.02.02.05.05.07-.11-.03-.24-.05-.33-.05ZM26.97,9.63c.06.05.1.11.14.14.03.13.13.23.23.26.06.02.11.02.18.01-.06.05-.07.07,0,.09-.01.05-.01.08-.01.11-.02-.02-.05-.03-.08-.02.05-.07-.01-.16-.09-.19-.05-.01-.09-.02-.14.01.01-.15-.13-.25-.27-.23.03-.06.01-.11-.05-.15.02.01.06,0,.09-.03ZM26.74,9.63l.09-.09c0,.06.01.09.03.11-.03-.02-.08-.03-.13-.02ZM26.53,9.06s.1.11.17.07c.02.05.03.05.05,0,.02.02.05.08.09.09v.05h-.05c-.06-.01-.09-.06-.14-.09-.01,0-.03.01-.05,0s-.03-.08-.09-.09c.01,0,.01-.01.01-.02ZM26.06,9.08c.06.06.16.08.18,0,.02.11.19.18.23.05.01.01.03.09.09.14.02.01.03,0,.05.01-.03.02-.06.06-.09.08.01.03.05.07.07.1-.03-.05-.07-.08-.11-.06-.08-.06-.15-.13-.23-.18-.01-.01-.02-.03-.05-.05-.03-.01-.1-.01-.14-.05.01-.01,0-.03,0-.05ZM25.91,8.82s.06.07.1.03v.05c-.09.02-.14,0-.18-.09.05.03.07.03.08.01ZM24.32,7.48h-.05.05ZM27.16,6.61s.01-.08-.02-.09c.02,0,.06.01.07,0,0,.01,0,.03.02.06-.02,0-.06,0-.07.03ZM27.66,7.16s0-.06-.01-.08c0-.01-.01-.03-.03-.06.05.03.07.07.09.09.03.02.13.05.19.09-.01.02,0,.06.01.08-.07-.07-.15-.11-.25-.13ZM28.04,7.43s-.05-.06-.07-.09c.03.03.08.05.11.05,0,.03.02.06.05.08-.02-.02-.07-.03-.09-.03ZM28.22,7.57s-.03-.06-.06-.08c.02.02.06.03.1.03.01.02.02.03.03.01v.05s.09.09.09.09c-.06-.05-.11-.08-.17-.1ZM29.14,10.27s.01-.02.01-.02c0,.01,0,.02.02.02h-.03ZM29.86,8.85c.03.06.07.1.11.15-.02-.01-.05-.02-.07-.01.03-.06-.03-.11-.09-.14,0-.01,0-.02-.01-.03.02.01.03.02.06.03ZM29.8,8.74s-.01.02-.01.02c-.01,0-.02,0-.02-.01.01,0,.02,0,.03-.01ZM29.68,8.69s.02.03.03.05c-.01,0-.02.01-.03.02.01-.01,0-.03,0-.07ZM29.58,8.79s.05.02.06.01c.07.07.17.16.23.23.01.06.03.11.07.18-.08-.11-.26-.33-.35-.42ZM30.41,11.93c-.06-.08-.11-.16-.16-.25.01,0,.02-.01.02-.02.05.1.11.17.18.23l-.05.05ZM30.37,9.81s-.03-.02-.05-.05c-.06-.06-.09-.13-.14-.18-.06-.07-.17-.15-.23-.23.01-.02.02-.05.02-.07,0,0,0-.01-.01-.03.1.17.26.32.4.42.02.06.07.11.09.17-.02-.02-.06-.03-.09-.03ZM30.44,9.56s.02-.01.02-.02c.01.02.02.05.03.06-.01-.01-.03-.02-.06-.03ZM32.08,12.03s-.01.02-.01.03c-.01-.02-.01-.03-.02-.05.01.01.02.01.03.01ZM32.01,11.88s0,.06.01.08c-.02-.02-.03-.03-.03-.06.01,0,.01-.01.02-.02ZM31.6,11.54s.01.03.02.06c-.02-.02-.05-.03-.07-.03.03.01.05,0,.05-.02ZM31.51,11.01v.05l-.06-.1s.05.03.06.06ZM31.33,10.69s0,.05.01.08l-.03-.06s.02-.01.02-.02ZM30.96,10.45s0,.07.02.11c-.02-.03-.05-.07-.07-.11h.05ZM30.98,10.83s-.02.01-.02.05c-.03-.05-.02-.1-.03-.13.01.02.02.01.03-.01-.01.03,0,.07.02.09ZM30.82,10.36s-.07-.06-.09-.09l.02-.02.06.06s-.02.02.01.06ZM30.77,9.89s-.01.01-.01.02c-.01-.01-.01-.02-.02-.03.01.01.02.01.03.01ZM30.55,9.72s0-.06-.02-.08c.02.01.03.02.05.02,0,0,.01.01.02.01,0,.03.01.08.03.11-.02-.02-.06-.05-.08-.07ZM30.68,10.11s.03.02.06.02c0,.02,0,.06.01.08-.01-.02-.03-.03-.06-.03.01-.02,0-.06-.01-.07ZM31.28,13.76s-.06-.08-.09-.14c-.05-.1-.08-.22-.14-.32-.1-.23-.21-.46-.32-.69.03-.03.03-.07.02-.1.01.01.03.01.07.01-.02.03-.03.06-.02.08.13.33.31.73.48,1.02-.02.02-.02.05-.01.07-.01,0-.01.02.01.07ZM31.19,11.51c-.11-.17-.22-.35-.32-.56l-.09-.03c.07-.05.02-.13-.05-.14.07.03.08.02.05-.05.03.03.07.09.09.14.01.01.03.02.05.05.05.07.09.15.14.23.05.06.09.24.14.32.03.06.13.1.14.14.05.08.1.14.14.23.09.19.03.18.05.27.01.01.08.06.09.09.07.14.11.23.18.37.06.09.09.17.14.27.07.1.13.22.18.32l-.14.09s.03-.06.03-.08c.02-.1-.41-.9-.54-1.02-.02-.23-.11-.43-.27-.64ZM31.97,14.08s-.02,0-.03.02c0-.02,0-.05-.01-.06.01.01.02.02.05.03ZM31.88,13.98l.05-.09s-.01.09,0,.14c-.01-.02-.02-.03-.05-.05ZM31.74,14.05v.1s-.02-.02-.05-.03c.02-.01.05-.02.05-.07ZM31.69,14.26s.05-.02.06-.05c.01.02.01.05.02.06-.02-.02-.05-.02-.08-.01ZM31.78,14.4s.01-.08,0-.11c.01.01.02.02.05.02,0,.05,0,.1.01.15-.01-.02-.03-.05-.06-.06ZM31.9,14.73s-.01-.03-.02-.06c.01-.06.01-.14-.02-.19.01.03.03.08.07.1,0,.03.01.08.02.13.01.08.02.16.05.23-.02-.07-.06-.14-.09-.21ZM32.14,14.72s-.02-.02-.03-.05c.02.01.03.01.03,0v.05ZM32.44,13.66s0,.03,0,.05c-.02.06-.07.11-.06.18-.03-.09-.17-.13-.18-.14.02-.1-.06-.32-.18-.32l.18-.05s.06.07.08.09h.07c-.01-.06-.02-.11-.05-.18l.09.27s.02.05.05,0c-.01.03,0,.07,0,.09ZM32.7,14.28c-.01-.06-.06-.1-.11-.09,0-.01-.01-.01-.01-.02v-.05s-.02-.03-.03-.01c.02-.05.03-.11.03-.18.01.01.03-.01.05-.08-.01.05,0,.09,0,.14v.14s.06.01.09,0c0,.03-.01.07,0,.09,0,.02.02.08.05.09-.02-.01-.05-.01-.06-.02ZM33.21,13.85s.01-.06.01-.09c.01.02.01.03.03.05l-.05.05ZM33.62,15.17c-.08-.02-.1-.01-.05.05-.02.01-.07,0-.09,0-.01-.01-.03-.02-.05-.05l-.05-.18s.02-.03.05-.05c.05.11.02.22.14.18,0-.11-.06-.22-.09-.32-.01-.02-.03-.06-.05-.09-.02-.03-.03-.03-.05,0-.01-.01-.18.01-.09-.23.02.08.06.21.09.09-.01-.05-.03-.14-.05-.18-.01-.06.02-.14-.03-.17h-.01s.05-.14.05-.15c.01.05.03.05.05,0-.03.03-.05.09-.02.13,0,.05.02.07.07.06-.07.13-.01.35.09.46.01.14.03.27.09.41-.05.02-.05.03,0,.05Z" class="mark" />
      <path d="M32.29,11.83s0-.07,0-.09c0-.05-.09-.08-.09-.09v.05c-.05.09.01.23.09.14Z" class="mark" />
      <path d="M4.65,23.93c0,.08.06.25.14.18,0,0-.08-.18-.14-.18Z" class="mark" />
      <path d="M5.01,12.89s.05-.15.05-.18l-.14.16s.09.03.09.02Z" class="mark" />
      <path d="M4.33,13.76c-.07-.07-.2.14-.07.14.03,0,.09-.11.07-.14Z" class="mark" />
      <rect x="4.51" y="13.94" width=".09" height=".14" class="mark" />
      <path d="M4.01,17.06h-.04c0,.08-.04.22.05.27,0-.03,0-.1,0-.14,0-.05,0-.09,0-.14Z" class="mark" />
      <path d="M4.05,16.6s-.04.05-.05.14c.04,0,.07-.04.09-.05l-.05-.09Z" class="mark" />
      <path d="M10.75,32.13c.05,0,.13.03.18.05-.04-.08-.14-.07-.18-.09v.05Z" class="mark" />
      <rect x="33.3" y="12.93" width=".09" height=".14" class="mark" />
      <path d="M7.95,8.26c-.06-.05-.18.09-.14.14.07.07.15-.13.14-.14Z" class="mark" />
      <path d="M27.39,6.36c.05.12.21.06.14-.02,0,0-.18-.09-.14.02Z" class="mark" />
      <path d="M13.95,4.14s.06-.03.09-.05c-.13-.08-.12,0-.18,0l.09.05Z" class="mark" />
      <path d="M15.05,3.77h-.18s0,.09,0,.09c.03.02.24-.07.18-.09Z" class="mark" />
      <path d="M15.38,3.54c.09-.02.18-.03.28-.05.07-.01.12-.03.18-.05.09-.02.18-.05.28-.05-.05-.16-.22-.02-.32,0-.03,0-.09.04-.14.05-.13.02-.36-.07-.32.09l-.14-.05c-.02.19.11.06.18.05Z" class="mark" />
      <path d="M11.48,32.54l-.14-.14c-.02.08.05.15.14.14Z" class="mark" />
      <path d="M5.06,11.88c.08-.12.14-.05.16-.09.05-.09.02-.31.07-.42.02-.04.18-.27.23-.37.03-.05.18-.22.14-.27-.07-.09-.16.2-.18.23-.09.14-.16.27-.23.41-.08.15-.16.3-.23.46-.01.03-.07.11-.05.14.1.1.09-.08.09-.09Z" class="mark" />
      <path d="M11.98,32.82s-.15-.15-.18-.05c0,0,.08.04.09.05.02.09.07.06.09,0Z" class="mark" />
      <path d="M6.3,10.37c-.04.08-.06.1-.09.18.04-.05.12-.06.09-.18Z" class="mark" />
      <path d="M19.64,3.49c.09,0,.2-.04.23-.05-.08,0-.15,0-.23,0s-.15,0-.23,0l.05.05c.06,0,.12,0,.18,0Z" class="mark" />
      <path d="M27.71,6.34l.14.14c.01-.09-.05-.15-.14-.14Z" class="mark" />
      <path d="M27.89,6.7c.06.05.12.09.18.14.06.05.12.09.18.14.05.04.1.06.14.09.06.04.12.09.18.14.07.05.13.11.23.18.02-.1-.14-.17-.23-.23-.04-.03-.08-.08-.14-.09-.03-.07-.09-.1-.14-.14-.06-.05-.12-.09-.18-.14-.06-.05-.11-.09-.18-.14-.04-.03-.07-.06-.14-.05.02.02.05.06.09.09Z" class="mark" />
      <path d="M7.58,8.03c-.15-.03-.06.08-.09.14.02-.03.13-.04.09-.14Z" class="mark" />
      <path d="M30.59,8.9s-.1-.02-.09.02c.09.24.19.07.09-.02Z" class="mark" />
      <path d="M15.05,34.42s.19.03.23.05c.03-.2-.33-.16-.23-.05Z" class="mark" />
      <path d="M15.74,34.28v.09h.23s0-.04,0-.04c-.02-.01-.21-.06-.23-.05Z" class="mark" />
      <path d="M16.52,34.51l.05.14s.06,0,.09,0c.03-.1-.06-.1-.14-.14Z" class="mark" />
      <path d="M17.62,34.74h-.09s-.09,0-.14,0c-.07-.06-.18-.07-.28-.09-.12-.03-.24-.07-.37-.05l.05.09c.09.01.18.03.28.05.03,0,.06,0,.09,0,.04,0,.08.04.14.05.06,0,.28.05.29.05.04,0,.02-.09.03-.09Z" class="mark" />
      <path d="M6.78,9.77c.12-.05.06-.21-.02-.14,0,0-.09.18.02.14Z" class="mark" />
      <path d="M32.61,12.45c-.01-.08-.05-.17-.14-.2.03.07.06.15.09.23l.04-.03Z" class="mark" />
      <path d="M20.33,3.49c-.07.01-.17-.02-.23,0,.03.09.28.04.23,0Z" class="mark" />
      <path d="M26.94,13l.17.11s.03.03.05.05c0,.08.04.12.09.09-.04.02-.04.03,0,.05,0,.01,0,.03,0,.05.05.22.19.35.32.5.01.02,0,.11.07.13.04.01.09-.04.11-.04.05,0,.08.05.09.09l.09-.02c-.03-.08-.09-.11-.14-.16-.03-.04-.1-.11-.14-.14.04-.11-.08-.16-.09-.18-.01-.03-.03-.09-.05-.14-.15-.37-.31-.77-.73-.92-.08-.03-.09.17-.07.22.11.05.19.16.22.31Z" class="mark" />
      <path d="M15.79,10.18s.19,0,.09-.09c-.01-.01-.14.03-.18.05-.06.02-.12.03-.18.05-.01,0-.05.03-.09.05v.09s.18,0,.28-.05c.02,0,.06-.07.09-.09Z" class="mark" />
      <path d="M27.75,14.17s.02.06.05.09c.18-.14.09.11.23,0-.05-.17-.06-.09-.14-.14l-.14.05Z" class="mark" />
      <path d="M28.07,12.43l.05.09s-.03,0-.04,0c0-.05-.05-.09-.1-.05,0,0-.05,0-.04.02.07.06.07.19.18.16,0,.01,0,.03,0,.05.06.14.11.24.18.37.06.11.16.21.23.32.02.04.06.12.09.18.12-.02.17-.17.05-.23.16-.13-.17-.45-.32-.37.1-.1.05-.22-.09-.18.27.01.06-.41-.09-.37-.01-.02-.04-.03-.05-.05.08-.1-.06-.31-.18-.27h-.05c.01.13.17.18.14.32.02.04.03.04.05,0Z" class="mark" />
      <path d="M28.85,13.89s-.02-.08-.05-.14c.1-.12-.08-.31-.18-.18.06.1.1.34.23.32Z" class="mark" />
      <path d="M26.15,11.79s.09.09.14.14l.09-.05c-.08-.05-.15-.12-.23-.18-.04-.03-.06-.12-.14-.14-.01,0-.03,0-.05,0-.05.17.1.15.18.23Z" class="mark" />
      <path d="M12.85,11.28c-.12-.02-.13,0-.05.09,0,0,.04.04.05.05.06-.08.12-.16.18-.23-.08,0-.16,0-.18.09Z" class="mark" />
      <path d="M28.76,14.17s-.01-.16-.07-.18c-.16-.06-.02.28.07.18Z" class="mark" />
      <path d="M11.43,22.78s.08.08.09.09l.05-.09s-.08-.08-.09-.14c0,.02-.07.08-.05.14Z" class="mark" />
      <path d="M26.49,12.2h.07s-.04-.14-.05-.18c-.1-.01-.1,0-.09.09.02.02.03.08.07.09Z" class="mark" />
      <path d="M25.19,10.82c.11.11.18.14.28.23.02.01.03.03.05.05l.14.09s.13.13.14.14l.05-.09c-.08-.07-.28-.23-.32-.27-.02-.02-.03-.07-.05-.09-.04-.08-.15-.18-.23-.14v-.05c-.06-.02-.12-.05-.18-.05-.03.11.08.13.14.18Z" class="mark" />
      <path d="M17.85,9.36c.07.02.17-.09.18-.09v-.05c-.05.05-.19.03-.22.05-.02.02,0,.08,0,.08h.05Z" class="mark" />
      <path d="M28.39,15.5c.05.05.09.09.14,0l-.05-.14c-.07,0-.09.08-.09.14Z" class="mark" />
      <path d="M29.08,14.98s0-.03.01-.07h.05s.02.03.02.05c.07.16-.08.21-.08.02Z" class="mark" />
      <path d="M28.12,14.67s.05.03.09.05v-.14s-.06-.03-.09-.05c0,.04,0,.09,0,.14Z" class="mark" />
      <path d="M13.77,10.32c-.07.04-.13.1-.18.16,0,.05.08.01.09.02l.18-.14s.03,0,.05,0c.01-.02.03-.03.05-.05-.03-.09-.13-.03-.18,0Z" class="mark" />
      <path d="M27.43,12.47l-.14-.14c-.02.09.05.15.14.14Z" class="mark" />
      <path d="M15.93,28.97s.16.13.05.18c-.01-.06-.18-.07-.18-.02.03.05.13.04.18.07.02,0,.03.04.05.05.15.05.3.14.46.07l-.14-.25c-.05-.07-.3-.04-.41-.09Z" class="mark" />
      <path d="M15.56,29.79s-.27-.1-.32-.09c-.05.2.45.23.32.09Z" class="mark" />
      <path d="M18.08,31.35c-.06,0-.13,0-.18,0-.08-.09-.25-.03-.37-.05-.03,0-.11-.08-.18-.05-.03.05-.06.09-.09.14l.23.05s.12.04.09-.09c.05.01.13.04.14.05.01,0,.03,0,.05,0,.23.04.4,0,.6,0-.07-.03-.14-.05-.23-.05-.01,0-.03,0-.05,0Z" class="mark" />
      <path d="M15.42,26.49c-.11.07-.03.14.05.18.05.03.07.06.14.05.05-.05-.13-.19-.18-.23Z" class="mark" />
      <path d="M16.52,28.69c-.08-.03-.12-.07-.23-.05-.02.07.09.05.14.09.02.01.03.03.05.05,0,0-.01.06,0,.08.03.03.27.09.31.03-.04-.05-.09-.08-.14-.11-.03-.03-.1-.08-.14-.09Z" class="mark" />
      <path d="M16.15,27.13c.11-.1-.15-.12-.18-.14-.07-.05-.18-.24-.32-.23l.27.27s.19.13.23.09Z" class="mark" />
      <path d="M16.25,27.32c-.11-.03-.23-.07-.09.05.05.04.26.11.27.09.08-.08-.11-.11-.18-.14Z" class="mark" />
      <path d="M16.3,30.48s-.05-.03-.09-.05c.03-.14-.06-.16-.18-.18-.05-.02-.08-.02-.09,0h-.09c-.06-.02-.1-.06-.14-.09-.03-.01-.07.01-.09,0-.02.01-.05.01-.07.02,0-.02,0-.05-.02-.07-.1-.03-.23-.09-.32-.14l-.05-.05h-.14l.09.09s.02.13-.09.09c-.06-.02-.13-.02-.18-.05-.11-.03-.14-.03-.23-.05v.05c.07-.01.11.02.18.05.1.05.21.09.32.14.08.03.14.03.18.05-.03.15.16.24.29.16,0,.01.01.02.03.02.13.08.37.16.5.09.07-.05.07-.03.14-.05.16.17.31.08.05-.05ZM15.34,30.25s-.03-.03-.05,0c-.05-.01-.08,0-.09-.05.03.01.1.03.14,0,.01.01.03.02.06.02-.02.01-.05.02-.06.02Z" class="mark" />
      <path d="M16.06,28.78s.13,0,.18,0c.02-.09-.21-.07-.23-.09l.05.09Z" class="mark" />
      <path d="M14.96,29.88s-.09-.04-.14-.05c-.02.19.12.05.14.05Z" class="mark" />
      <path d="M10.01,20.45c0-.06.03-.15-.05-.18,0-.03,0-.06,0-.09.06-.06.01-.14-.05-.18.02-.03.01-.06,0-.09,0-.02,0-.03,0-.05-.07-.02-.03-.09-.05-.14-.1-.02-.08.15-.05.23,0,.07-.03.19.05.23,0,.13.03.18.05.27.02.13.01.41.14.37,0,.07-.13.16.05.14,0-.04,0-.15,0-.18h-.05c.09-.06.08-.17-.05-.32Z" class="mark" />
      <path d="M9.87,19.39s0-.03,0-.05c0-.01-.06-.14-.07-.14-.12.13-.12.29.07.32,0-.05,0-.09,0-.14Z" class="mark" />
      <path d="M11.34,23.1s.02.13.05.14c0,0,.06,0,.09,0v-.09c0-.1-.06-.09-.14-.05Z" class="mark" />
      <path d="M11.39,22.42s0-.03,0-.05l-.14.05s.04.07.05.09c.1.01.1,0,.09-.09Z" class="mark" />
      <path d="M9.87,14.49s-.09.05-.14.09c.05-.07.07-.15.09-.23-.13-.03-.1.13-.14.23,0,0-.02.04-.05.05.03.02-.03.07.14.14.15.01.26-.22.09-.27Z" class="mark" />
      <path d="M9.28,15.36s.05-.15.05-.18l-.09.05.05.14Z" class="mark" />
      <path d="M9.6,16.05c-.04.11-.02.26-.05.37-.06.26-.1.46-.14.73-.03.23-.1.49-.09.73,0,.3-.02.16-.05.26-.02.1,0,.27,0,.38,0,.16-.01.35,0,.5.02.04.03.04.05,0,0,.07.07.12.09.05.04-.13.03-.28,0-.41,0-.16,0-.31,0-.46.03-.1.04-.22,0-.32.01-.15,0-.31.05-.46,0-.02.04-.03.05-.05.01-.04.04-.07.05-.09l.05-.55c0-.11,0-.22,0-.32,0-.07.09-.21.05-.32,0,0,0-.06-.05-.05Z" class="mark" />
      <path d="M9.46,19.62s-.04,0-.05-.02c0-.05,0-.11,0-.16,0-.05,0-.09,0-.14,0-.03,0-.06,0-.09-.02-.04-.03-.04-.05,0,0,.04-.04.11-.05.18.01.05.03.07.05.05-.05.09-.03.22,0,.32.15.03.07-.05.09-.14Z" class="mark" />
      <path d="M9.37,20.13s.04.04.05.05c.17-.02.17-.11-.05-.05Z" class="mark" />
      <path d="M11.48,23.29s.09.27.18.23c.03-.03-.09-.27-.18-.23Z" class="mark" />
      <path d="M11.94,23.97s.13.26.18.27c.04-.08-.11-.35-.18-.27Z" class="mark" />
      <path d="M11.66,23.1v-.18s-.08.04-.09.05c.04.06.03.15.09.14Z" class="mark" />
      <path d="M23.31,4.41c.05-.12-.08-.09-.18-.09.04.09.09.1.18.09Z" class="mark" />
      <path d="M20.37,7.85c-.04.06.01.09.14.09.15,0,.19.03.28.05.08.04.14-.05.09-.09-.02-.02-.43-.04-.5-.05Z" class="mark" />
      <path d="M15.01,31.21s-.04.03-.05.05c0,.01,0,.03,0,.05.28.11.35-.03.05-.09Z" class="mark" />
      <path d="M8.87,19.9c-.15-.03-.08.07-.05.18.01.03,0,.07.05.09.06-.14,0-.1,0-.14,0-.04,0-.1,0-.14Z" class="mark" />
      <path d="M28.77,10.45c-.11-.13-.26-.25-.37-.37-.02-.02-.05-.08-.09-.14-.18-.17-.21-.18-.41-.32-.07-.03-.11-.1-.19-.14,0-.11-.07-.16-.18-.18-.07-.18-.1-.15-.23-.27-.01-.01-.02-.07-.05-.09-.01.01-.02,0-.05,0-.01-.01-.02-.03-.05-.05-.07-.06-.15-.06-.19-.09-.05-.02-.05-.1-.08-.14-.17-.17-.22-.11-.37-.18-.02-.01-.06-.07-.09-.09-.03.06-.06.11-.14.09.03.13.11.19.17.05h.06s.03.08.05.09v.14s.09.09.09.09c.01.01.03,0,.05,0,.06.05.13.11.18.14.01.01.03,0,.05,0,.06.1.14.17.23.23l-.14-.23s.03,0,.05,0c.02.05.03.05.05.01,0,.09.08.16.14.08-.01.05.01.06.05.05,0,.05.02.09.06.13-.02,0-.03,0-.06.01.01.13.14.22.23.27h.05s.01-.07,0-.09c.02.07.06.11.08.08-.01.07.08.15.15.15.02.05.03.05.05,0-.05.07.02.14.1.14.05.06.09.1.14.14-.05.11.08.15.18.14,0,.02.02.08.05.09.01.02.02.03.05.05.03.05.09.07.14.09-.1.09-.01.21.09.14.01.05.03.1.03.14h0s.01.01.01.01c.01,0,.03-.01.05,0-.03.1.07.25.18.23.1.09.22.18.32.27-.05-.26-.26-.46-.41-.65ZM27.43,9.35s0-.03-.02-.05c.03,0,.06.01.07,0-.01.01-.02.05-.05.05Z" class="mark" />
      <path d="M29.63,11.79s.05-.07.05-.11c0-.01-.15-.17-.18-.21-.03-.05-.04-.12-.09-.18-.07-.09-.1-.11-.18-.18l.14.23s0,.03,0,.05c-.02.05-.03.09-.05.14.06.03.1.09.14.14-.03.05.02.16.09.14.01,0,.03,0,.05,0,0,.09.06.15.14.18-.03-.08-.09-.17-.09-.18Z" class="mark" />
      <path d="M29.82,11.51s0-.07,0-.09c0-.07-.07-.12-.09-.05-.01.1-.04.15.09.14Z" class="mark" />
      <path d="M29.59,11.19c.02-.09-.08-.11-.09-.14h-.05c.04.06.07.11.14.14Z" class="mark" />
      <path d="M19.36,8.85c.09.03.2.03.32,0,.02,0,.03,0,.05,0,.05-.15-.27-.09-.41-.09-.1,0-.22,0-.32,0-.12.03-.12.08,0,.09.11.04.26.05.37,0Z" class="mark" />
      <path d="M21.38,8.35c.09,0,.12.03.18.05.18.05.36.1.55.14.12.04.21-.03.09-.09-.18-.05-.37-.09-.55-.14-.1-.02-.19-.03-.28-.05,0,0,0,.07,0,.09Z" class="mark" />
      <path d="M22.48,8.58c0-.05-.05-.07-.09-.09-.1-.01-.1,0-.09.09.07,0,.11.02.18,0Z" class="mark" />
      <path d="M23.9,9.82s-.18-.09-.14.02c.05.12.21.06.14-.02Z" class="mark" />
      <path d="M10.01,14.72s.04.1.18-.09l-.09-.09-.09.18Z" class="mark" />
      <path d="M16.29,10s-.02-.05-.05-.05c-.08,0-.2.03-.28.05l-.05.09.32-.05s.03-.04.05-.05Z" class="mark" />
      <path d="M17.44,9.43s-.14-.03-.18-.02c-.06,0-.15.07-.23.05v.09s.1,0,.14,0c.06,0,.22-.07.27-.11Z" class="mark" />
      <path d="M14.32,10s-.07.03-.09.05c-.07.05-.25.1-.18.18,0,0,.21-.08.23-.09.02,0,.03-.03.05-.05.02-.01.03-.03.05-.05,0,0,.04,0,.05,0,0,0,0-.06.03-.09.05-.05.13-.03.11-.09-.15-.05-.18.1-.23.14Z" class="mark" />
      <path d="M14.23,9.91h-.14s0,.13,0,.14c.05-.04.12-.07.14-.14Z" class="mark" />
      <path d="M13.95,10.05c-.08.02-.15.05-.23.09-.05.02-.09.06-.14.09-.07.04-.16.13-.23.18-.06.04-.12.09-.18.14-.04.03-.09.04-.14.05-.02.03-.03.07-.05.09h.14c-.1.02-.15.08-.05.14,0,.02,0,.03,0,.05.03-.03.06-.06.09-.09.15-.14.25-.09.23-.32.15-.04.25-.16.37-.23.06-.03.12-.05.18-.09.05-.04.07-.03.14-.09-.01.01-.1,0-.14,0Z" class="mark" />
      <path d="M29.36,15.14c-.07.01-.13-.09-.16-.21-.03-.09-.06-.19-.07-.26-.01-.01,0-.02,0-.05-.02-.02-.08-.06-.09-.09-.08-.18-.14-.43-.18-.59.09-.07.16.17.18.27h.03c-.02-.11-.15-.25-.08-.37.05.1.18.3.09.37.07-.01.07.02,0,.09.14,0,.15.06.05.14.07-.01.1.03.14.09.05.05.05.08,0,.09.03.1.02.11-.05.05.06.07.09.15.11.23.01.05.02.1.02.15.03,0,.03.07,0,.09Z" class="mark" />
      <path d="M29.45,15.41s-.06.03-.07.03v-.02s.02-.09.02-.1l.05.09Z" class="mark" />
      <path d="M16.84,9.79l.14.02v-.09c-.07-.01-.1.02-.14.07Z" class="mark" />
      <path d="M28.49,10.6c.08.16.09.08.14.14,0-.04,0-.1,0-.14-.04,0-.1,0-.14,0Z" class="mark" />
      <path d="M28.3,10.41l.09-.02-.14-.07c-.02.07.01.06.05.09Z" class="mark" />
      <path d="M23.99,8.44c-.07.01-.24-.07-.27-.04-.01.01,0,.08,0,.09.08.08.27,0,.32,0,0-.02-.04-.03-.05-.05Z" class="mark" />
      <path d="M29.72,13.62s0,.07,0,.09c.05.18.22.46.32.55-.03-.1-.05-.22-.09-.32-.05-.12-.09-.24-.14-.37,0-.01,0-.03,0-.05.03-.05.02-.13-.05-.14-.09-.17-.28-.41-.41-.55.07.29.22.5.32.78.02.04.03.04.05,0Z" class="mark" />
      <path d="M30.16,15.58l-.09.02c-.01-.08-.02-.15-.05-.23-.01-.02-.01-.05-.02-.07-.03-.08-.06-.15-.08-.23,0-.01-.01-.03-.01-.05-.03-.08-.07-.18-.1-.27-.01-.03-.02-.06-.03-.09-.09-.25-.34-.61-.37-.87-.14-.13-.16-.35-.23-.5-.05-.09-.14-.23-.18-.32-.11-.18-.25-.41-.38-.59-.06-.09-.11-.18-.18-.27-.02-.06-.09-.11-.14-.18-.03-.07-.13-.15-.18-.24-.05-.07-.07-.15-.09-.18.13-.02.1.09.14.14.07.08.13.16.18.24.05.06.1.11.14.18.07.09.13.17.18.27.14.21.25.37.38.59.07.13.11.24.18.37.06.11.17.25.23.37.03.01.03.02,0,.05.02.06.07.13.09.18.11.25.17.43.27.69.02.06.05.11.05.17.03.09.06.18.09.29,0,0,.01.01.02.03.02.03.05.08.07.15.01.05.02.09.05.14.02.08.05.15.07.23Z" class="mark" />
      <path d="M27.75,11.24s0,.04.02.06c-.02-.02-.04-.03-.06,0-.01,0-.04,0-.05,0l-.28-.14c.05.12.13.26.28.27.02.17.05.11.09.18.06.09.14.16.18.23.05.07.1.13.14.18.11.16.2.34.32.5.03.04.05.09.09.14.08-.09-.02-.13-.05-.18-.11-.24-.17-.3-.32-.5-.05-.06-.09-.12-.14-.18-.06-.08-.09-.18-.18-.23,0-.06,0-.13,0-.18,0-.02,0-.04-.02-.06.02.01.04.02.06.02,0,0,.05.05.05,0-.08-.13-.09-.2-.23-.32-.07-.06-.09-.06-.14-.09.03.04.06.09.09.14.05.07.08.12.14.18Z" class="mark" />
      <path d="M27.39,10.6l.14.14s.06,0,.04-.06c-.02-.08-.11-.14-.18-.07Z" class="mark" />
      <path d="M30.32,13.12c-.07.05-.12.04-.09.14.04,0,.11-.01.14,0,.02,0,.08.07.09.09.01.02.02.09.05.14.03.06.09.13.09.14l.05-.18c-.03-.06.04-.12-.14-.09,0-.01,0-.03,0-.05-.02-.1-.08-.2-.05-.32l.14.09c0-.23-.1-.45-.18-.09-.06-.15-.26-.3-.32-.41-.02-.04-.02-.13-.05-.18-.02,0-.04,0-.05,0,.1-.25-.12-.2-.21-.37h-.06c.06.17.16.27.23.41.03.05,0,.15.09.18-.17.33.11.22.16.27.05.05.07.18.12.23Z" class="mark" />
      <path d="M30.41,14.63h0s-.02-.02-.03-.02-.02,0-.02-.01c-.07-.02-.05-.08.06-.11-.14,0-.15-.06-.05-.14-.14,0-.19-.13-.09-.23-.15-.01-.26-.23-.18-.37.02-.02.03-.09.09-.09-.01.15.08.25.14.37.03.09.06.21.09.27.03.09.13.16.14.18,0,.02-.01.03,0,.05.01.02.02.05.02.06l-.16.05Z" class="mark" />
      <path d="M30.87,14.35s.04.14.05.18l.05-.05s-.04-.12-.05-.14c-.01-.11.13-.16-.05-.27-.04-.02-.11,0-.14-.14,0,.02.07.23.09.32.01.04.04.07.05.09Z" class="mark" />
      <path d="M29.24,11.65s.11.11.16.14l.05-.02-.18-.16s-.05,0-.03.04Z" class="mark" />
      <path d="M29.54,12.61s.03.06.05.09c.1.18.19.37.28.55.04.08.06.16.09.23.01.06.04.12.09.18.22.06-.05-.33-.09-.41-.03-.07-.05-.15-.09-.23.01-.15-.09-.45-.28-.41.02-.09-.08-.11-.09-.14-.1-.17-.12-.15-.18-.23.05.13.07.16.14.27.03.05.08.08.09.09Z" class="mark" />
      <path d="M30.78,15.01v.02h-.02s-.07-.05-.07-.05l.05-.18s.05.15.05.21Z" class="mark" />
      <path d="M19.13,8.3c.08,0,.18.04.23-.04h-.18s-.04.02-.05.04Z" class="mark" />
      <path d="M17.85,8.95s-.05.06-.05.09c.02,0,.03,0,.05,0,.03.07.09.05.14,0,.03,0,.06,0,.09,0v-.05s.06,0,.09,0c.07.03.15.03.23,0,.03-.01.06-.03.09-.05-.1-.08-.37-.08-.46,0-.03,0-.06,0-.09,0,.01-.08-.08-.18-.14-.14-.02.01.04.07.05.09,0,.02,0,.03,0,.05Z" class="mark" />
      <path d="M17.76,8.9c-.01-.07-.16-.07-.18,0,.05,0,.03.04.18,0Z" class="mark" />
      <path d="M11.39,12.57s.06-.1.05-.14l-.14.11s.08.03.09.02Z" class="mark" />
      <path d="M28.72,13.02s.03.02.05,0c-.01-.13-.1-.22-.18-.32-.09.14.09.24.14.32Z" class="mark" />
      <path d="M29.27,14.03s-.02.17.05.23c.03,0,.09.02.09-.02-.02-.09-.06-.17-.09-.25-.05-.12-.12-.21-.18-.32-.02-.03-.01-.12-.04-.15-.04-.05-.09-.02-.1-.03l-.04.02c.03.08.1.14.14.21.04.08.16.27.18.32Z" class="mark" />
      <path d="M30.22,14.64l-.07.02s-.03-.08-.06-.14c-.05-.11-.03-.26-.05-.27.02.08.1.19.14.27.01.03.02.08.03.11Z" class="mark" />
      <path d="M28.85,13.21s-.02.12.09.23c.07-.08-.01-.15-.05-.23-.02-.04-.03-.04-.05,0Z" class="mark" />
      <path d="M29.86,15.45h0c-.01-.06-.03-.09-.05-.14-.01-.06-.03-.11-.07-.17-.01-.06-.05-.13-.07-.19-.01-.05-.03-.08-.05-.13s-.02-.1-.05-.15c-.02-.07-.07-.13-.09-.18-.02-.05-.03-.34-.11-.18-.05.09.03.15.07.23,0,.01-.01.03,0,.05-.09.1-.03.19.09.14-.03.05-.05.09-.05.14.01.07.06.13.14.14-.05.03-.06.11-.03.19,0,.09.05.18.13.17-.03.03-.05.07-.03.1-.03-.07-.09-.13-.15-.15-.09-.02-.11.03-.05.09,0,.05.02.09.05.15.02.07.07.14.08.18h.06v-.02c.05-.06.06-.11.03-.19.01.01.03.02.06.02-.03.07-.01.09.09.09l-.03.05.08-.02v-.02c-.01-.06-.03-.11-.05-.18Z" class="mark" />
      <path d="M29.53,15.2v.03l-.03.03s-.01-.03-.02-.06c-.02-.03-.06-.08-.07-.13-.01-.02,0-.03,0-.05-.01-.05-.07-.11-.03-.16,0-.01.02-.02.03-.02h0c.02.08.07.15.09.23.01.03.02.07.03.11Z" class="mark" />
      <path d="M23.99,8.85v-.05c-.07-.04-.13-.11-.23-.14-.03.13.14.12.23.18Z" class="mark" />
      <path d="M24.09,8.49c-.01.09.06.1.09.14.03,0,.06,0,.09,0-.05-.04-.12-.12-.18-.14Z" class="mark" />
    </g>
    <path d="M30.03,24.75c.04-.05.09-.14.13-.2.02-.04.09-.04.02-.09-.04.05-.15.1-.07.15-.06.05-.05.03-.11.11-.03.06-.02.08.04.04Z" class="mark" />
    <path d="M31.81,18.28c0-.07,0-.17-.01-.24,0-.05.05-.09-.04-.09,0,.06-.07.17.02.16-.02.08-.03.05-.03.15,0,.07.03.08.05,0Z" class="mark" />
    <path d="M20.67,30.05c.06,0,.15-.02.21-.03.04,0,.08.04.07-.04-.06,0-.15-.05-.14.03-.07-.01-.05-.02-.14-.01-.06.01-.07.03,0,.05Z" class="mark" />
    <path d="M21.38,29.92c.05,0,.1-.01.16-.02.04,0,.07-.01.1-.02.05-.01.1-.03.16-.02-.03-.09-.13-.02-.18,0-.02,0-.05.02-.08.02-.08,0-.2-.05-.18.05l-.08-.03c-.02.1.06.04.1.03Z" class="mark" />
    <path d="M31.89,27.48c.04-.05.08-.1.12-.16.03-.04.05-.07.08-.12.04-.06.07-.12.12-.16-.1-.06-.13.1-.17.16-.01.02-.03.06-.05.09-.06.08-.23.14-.13.21l-.1.04c.08.11.09-.02.12-.07Z" class="mark" />
    <path d="M26.34,30.34l-.08.08s-.02.01-.03.02c-.05,0-.07,0-.06.04,0-.02-.01-.03-.03,0,0,0-.02,0-.03,0-.13,0-.22.06-.32.11-.01,0-.06-.02-.08.02-.01.02.01.06,0,.07,0,.03-.04.03-.06.04v.05s.07-.04.11-.05c.03-.01.07-.04.09-.06.06.04.1-.02.11-.03.02,0,.05,0,.08,0,.22-.03.47-.07.6-.28.03-.04-.08-.07-.11-.07-.04.06-.11.08-.2.08Z" class="mark" />
    <path d="M27.38,31.48s.14-.01.06-.08c-.01,0-.1.04-.14.05-.05.02-.09.03-.14.05,0,0-.03.03-.07.04v.07s.14-.02.21-.06c.02,0,.04-.06.06-.08Z" class="mark" />
    <path d="M22.19,30.53s.09,0,.04-.04c0,0-.07.02-.09.02-.03,0-.06.01-.09.02,0,0-.02.01-.04.02v.04s.09,0,.13-.02c.01,0,.03-.03.04-.04Z" class="mark" />
    <path d="M20.9,31.69s-.07.01-.11.02v.06s.1-.03.15-.05c.02,0,.07.01.11-.02,0,0,0-.02.01-.02-.06-.08-.1,0-.17.01Z" class="mark" />
    <path d="M20.6,31.72l-.02.03s.08.03.1.04c.04-.04.04-.05-.01-.07-.02,0-.05,0-.06,0Z" class="mark" />
    <path d="M32.45,26.56l-.02.03s.08.03.1.04c.04-.04.04-.04-.01-.07-.02,0-.05-.01-.06,0Z" class="mark" />
    <path d="M24.78,29.02l-.02.03s.08.03.1.04c.04-.04.04-.05-.01-.07-.02,0-.05,0-.06,0Z" class="mark" />
    <path d="M21.53,31.6c.09-.01.13-.04.2-.05.01,0,.02,0,.04,0l.09-.03s.1-.02.11-.02l-.03-.05c-.06.01-.2.05-.23.06-.02,0-.04,0-.06,0-.05,0-.13.01-.14.06l-.02-.02s-.06.04-.08.07c.04.05.09,0,.13,0Z" class="mark" />
    <path d="M28.04,25.02c.07.03.03.07,0,.11-.02.02-.03.04-.07.04-.03-.02.05-.12.08-.15Z" class="mark" />
    <path d="M27.69,25.45c-.07-.04.07-.08.09-.09.04-.04.07-.15.16-.16l-.13.18s-.09.09-.12.07Z" class="mark" />
    <path d="M25.6,28.81c-.05-.06.1-.05.12-.06.05-.02.12-.11.2-.09l-.18.12s-.12.05-.14.03Z" class="mark" />
    <path d="M21.72,33.19s-.06-.02-.07-.01l.03-.05s.06.01.09,0c0,0-.02.06-.05.06Z" class="mark" />
    <path d="M22.59,33.02s-.06-.02-.07-.01l.03-.05s.06.01.09,0c0,0-.02.06-.05.06Z" class="mark" />
    <path d="M22.14,33.05s.01,0,.02-.01l.02.08s-.05,0-.06,0c-.04-.04-.03-.05.01-.07Z" class="mark" />
    <path d="M22.93,32.89s.01,0,.02-.01l.02.08s-.05,0-.06,0c-.04-.04-.03-.05.01-.07Z" class="mark" />
    <path d="M21.43,30.68s.02,0,.02-.01v.08s-.04,0-.05,0c-.03-.05-.03-.05.02-.07Z" class="mark" />
    <path d="M21.47,33.19l.09-.06s0,.05,0,.06c-.04,0-.08.04-.09,0Z" class="mark" />
    <path d="M22.36,33.03l.09-.06s0,.05,0,.06c-.04,0-.08.04-.09,0Z" class="mark" />
    <path d="M26.96,29.2l.08-.06s.01.05,0,.06c-.04,0-.08.04-.09,0Z" class="mark" />
    <path d="M30.06,29.7l.08-.06s.01.05.01.06c-.04,0-.08.04-.09,0Z" class="mark" />
    <path d="M24.37,32.49s-.11-.01-.06.05c0,0,.08-.01.11-.02.04,0,.07-.01.11-.02,0,0,.03-.02.05-.02v-.05s-.09,0-.15.01c-.01,0-.04.04-.06.05Z" class="mark" />
    <path d="M24.08,32.56s.01.03.02.03c.04,0,.11,0,.16-.01l.03-.05h-.18s-.02.03-.03.03Z" class="mark" />
    <path d="M34.05,16.19s-.02.11.04.06c0,0,0-.08-.01-.11,0-.04,0-.07-.01-.11,0,0-.02-.03-.02-.05h-.05s0,.09,0,.15c0,.01.03.04.04.06Z" class="mark" />
    <path d="M34.11,16.49s.03-.01.03-.02c0-.04,0-.11,0-.16l-.05-.03v.18s.02.02.02.03Z" class="mark" />
    <path d="M23.07,29.59s-.04,0-.06,0c-.04.02-.15.01-.13.07,0,0,.12,0,.14,0,.01,0,.02-.01.03-.02.01,0,.02-.01.03-.02,0,0,.02.01.02,0,0,0,0-.03.03-.04.04-.02.07,0,.08-.03-.07-.05-.11.02-.15.03Z" class="mark" />
    <path d="M29.02,30.29h.08s0-.05,0-.05c-.04,0-.05.02-.07.05Z" class="mark" />
    <g>
      <rect x="32.25" y="15.14" width=".85" height=".85" transform="translate(-3.04 9.69) rotate(-16.13)" class="mark" />
      <polygon points="30.78 15.02 30.78 15.04 30.76 15.02 30.78 15.02" class="mark" />
      <rect x="30.88" y="15.24" width=".85" height=".85" transform="translate(-3.12 9.32) rotate(-16.13)" class="mark" />
      <rect x="29.67" y="15.97" width=".85" height=".85" transform="translate(-3.37 9.01) rotate(-16.13)" class="mark" />
      <rect x="30.94" y="18.7" width="1.07" height="1.07" transform="translate(.71 -1.11) rotate(2.05)" class="mark" />
      <rect x="32.61" y="21" width="1.07" height="1.07" transform="translate(3.8 -4.95) rotate(9.05)" class="mark" />
      <rect x="32.37" y="19.44" width="1.07" height="1.07" transform="translate(1.51 -2.3) rotate(4.09)" class="mark" />
      <rect x="29.86" y="17.74" width=".79" height=".79" transform="translate(-1.65 3.1) rotate(-5.71)" class="mark" />
      <rect x="32.08" y="22.37" width="1" height="1" transform="translate(6.92 -7.56) rotate(14.8)" class="mark" />
      <rect x="30.82" y="16.96" width=".79" height=".79" transform="translate(-2.6 5.85) rotate(-10.27)" class="mark" />
      <rect x="32" y="16.71" width=".79" height=".79" transform="translate(-2.53 6.05) rotate(-10.27)" class="mark" />
      <rect x="33.71" y="18.5" width=".79" height=".79" class="mark" />
      <rect x="31.08" y="20.34" width=".79" height=".79" transform="translate(3.04 -4.01) rotate(7.66)" class="mark" />
      <rect x="29.47" y="21.38" width="1" height="1" transform="translate(6.58 -6.93) rotate(14.8)" class="mark" />
      <rect x="30.33" y="24.82" width="1" height="1" transform="translate(15.29 -11.42) rotate(27.68)" class="mark" />
      <rect x="31.98" y="25.25" width=".88" height=".88" transform="translate(15.64 -12.12) rotate(27.68)" class="mark" />
      <rect x="28.55" y="24.33" width=".88" height=".88" transform="translate(16.27 -11.18) rotate(30)" class="mark" />
      <rect x="28.81" y="27.47" width=".66" height=".66" transform="translate(30.59 -12.45) rotate(48.41)" class="mark" />
      <rect x="27.12" y="26.78" width=".59" height=".59" transform="translate(31.66 -11.22) rotate(51.69)" class="mark" />
      <rect x="29.11" y="29.4" width=".55" height=".55" transform="translate(31.8 -12.02) rotate(48.04)" class="mark" />
      <rect x="27.53" y="28.07" width=".5" height=".5" transform="translate(32.79 -11.03) rotate(51.69)" class="mark" />
      <rect x="25.1" y="27.57" width=".5" height=".5" transform="translate(36.77 -8.05) rotate(60)" class="mark" />
      <rect x="24.78" y="29.27" width=".5" height=".5" transform="translate(44.79 -3.76) rotate(71)" class="mark" />
      <rect x="27.16" y="29.7" width=".5" height=".5" transform="translate(42.37 -7.8) rotate(64.08)" class="mark" />
      <rect x="28.46" y="26.69" width=".43" height=".43" transform="translate(27.42 -12.4) rotate(45)" class="mark" />
      <rect x="30.53" y="27.64" width=".43" height=".43" transform="translate(24.42 -13.15) rotate(39.05)" class="mark" />
      <rect x="28.77" y="28.67" width=".43" height=".43" transform="translate(33.68 -11.76) rotate(51.69)" class="mark" />
      <rect x="26.45" y="27.87" width=".43" height=".43" transform="translate(35.41 -9.64) rotate(56.57)" class="mark" />
      <rect x="29.83" y="28.44" width=".76" height=".76" transform="translate(29.22 -12.92) rotate(45)" class="mark" />
      <rect x="29.12" y="22.82" width=".79" height=".79" transform="translate(10.36 -9.08) rotate(21.14)" class="mark" />
      <rect x="33.57" y="17.23" width=".79" height=".79" transform="translate(-1.58 3.47) rotate(-5.71)" class="mark" />
      <rect x="33.09" y="16.24" width=".65" height=".65" transform="translate(-2.67 7.15) rotate(-11.75)" class="mark" />
      <rect x="32.45" y="18.01" width=".65" height=".65" transform="translate(-1.66 3.35) rotate(-5.71)" class="mark" />
      <rect x="33.74" y="19.96" width=".73" height=".73" transform="translate(1.54 -2.38) rotate(4.09)" class="mark" />
      <rect x="29.82" y="19.64" width=".65" height=".65" transform="translate(2.47 -3.3) rotate(6.54)" class="mark" />
      <rect x="31" y="21.79" width=".76" height=".76" transform="translate(5.6 -6.32) rotate(12.62)" class="mark" />
      <rect x="32.52" y="24.04" width=".65" height=".65" transform="translate(9.95 -9.52) rotate(19.38)" class="mark" />
      <rect x="29.27" y="26.03" width=".65" height=".65" transform="translate(23.22 -12.76) rotate(39.05)" class="mark" />
      <rect x="27.81" y="25.64" width=".65" height=".65" transform="translate(24.29 -12.13) rotate(41.54)" class="mark" />
      <rect x="33.45" y="22.69" width=".52" height=".52" transform="translate(6.98 -7.85) rotate(14.8)" class="mark" />
      <rect x="30.71" y="23.34" width=".83" height=".83" transform="translate(10.66 -9.63) rotate(21.14)" class="mark" />
      <rect x="30.81" y="26.48" width=".83" height=".83" transform="translate(21.17 -13.07) rotate(35.13)" class="mark" />
      <rect x="22.17" y="31.13" width=".26" height=".26" transform="translate(-6.53 5.9) rotate(-13.16)" class="mark" />
      <rect x="21.97" y="29.6" width=".26" height=".26" transform="translate(-6.19 5.81) rotate(-13.16)" class="mark" />
      <rect x="22.87" y="31.96" width=".26" height=".26" transform="translate(-8 7.64) rotate(-16.11)" class="mark" />
      <rect x="23.51" y="32.88" width=".26" height=".26" transform="translate(-8.23 7.86) rotate(-16.11)" class="mark" />
      <rect x="23.52" y="31.07" width=".31" height=".31" transform="translate(-6.49 6.21) rotate(-13.16)" class="mark" />
      <rect x="22.99" y="29.98" width=".31" height=".31" transform="translate(-8.55 9.18) rotate(-19)" class="mark" />
      <rect x="25.25" y="32.13" width=".35" height=".35" transform="translate(-10.67 12.64) rotate(-23.21)" class="mark" />
      <rect x="27.74" y="30.7" width=".35" height=".35" transform="translate(-10.69 15.31) rotate(-25.92)" class="mark" />
      <rect x="26.1" y="29.18" width=".35" height=".35" transform="translate(-10.19 14.44) rotate(-25.92)" class="mark" />
      <rect x="26.11" y="31.31" width=".43" height=".43" transform="translate(-10.29 12.93) rotate(-23.21)" class="mark" />
      <rect x="24.64" y="30.66" width=".43" height=".43" transform="translate(-8.7 9.78) rotate(-19)" class="mark" />
      <rect x="23.63" y="28.99" width=".43" height=".43" transform="translate(-7.74 8.61) rotate(-17.66)" class="mark" />
    </g>
  </g>
</svg>